<svg xmlns="http://www.w3.org/2000/svg" width="184" height="184" viewBox="0 0 184 184"><defs><style>.a{fill:#fff;}.b{fill:#00a1c1;}.c{fill:#003383;}.d{fill:#d3a354;}</style></defs><g transform="translate(-184.635 -31.027)"><circle class="a" cx="92" cy="92" r="92" transform="translate(184.635 31.027)"/><g transform="translate(228.635 83.451)"><path class="b" d="M312.635,148.464a2.962,2.962,0,0,1-3.118,1.707c-1.62-.083-3.249-.01-4.874-.023-1.024-.008-1.636-.544-1.642-1.394s.6-1.4,1.623-1.411c1.686-.014,3.371,0,5.127,0v-38.2H275.577v38.2H297.11a4.636,4.636,0,0,1,.935.031,1.395,1.395,0,0,1-.011,2.75,4.178,4.178,0,0,1-.841.029q-27.28,0-54.56,0c-2.195,0-2.978-.787-2.979-3q0-9.657,0-19.312v-1.235h-1.188q-9.374,0-18.748,0c-2.332,0-3.08-.756-3.08-3.094q0-18.89,0-37.78c0-2.217.822-3.033,3.063-3.035,2.811,0,5.621,0,8.582,0V81.666c0-2.625-.006-5.25,0-7.875a2.438,2.438,0,0,1,2.761-2.763q33.749,0,67.5,0c1.837,0,2.731.854,2.745,2.674.023,3.031.014,6.062,0,9.093,0,1.2-.512,1.811-1.427,1.8s-1.376-.626-1.38-1.843c-.009-2.594,0-5.187,0-7.781v-1.13H297.4q-13.078,0-26.155-.016a1.373,1.373,0,0,0-1.4.777c-1.521,2.648-3.1,5.262-4.783,8.1h1.211q10.124,0,20.249,0c2.316,0,3.1.778,3.1,3.08q0,9.61,0,19.218v1.189h8.81c.016-.367.047-.729.047-1.092q.005-7.266,0-14.531a5.864,5.864,0,0,1,.051-1.027,1.265,1.265,0,0,1,1.38-1.132,1.247,1.247,0,0,1,1.318,1.094,6.041,6.041,0,0,1,.061,1.119q.005,7.219,0,14.437v1.208h3.083c1.719,0,3.441.068,5.155-.021a2.912,2.912,0,0,1,3.1,1.723Zm-65.6-42.263h39.687V85.511H247.1a7.862,7.862,0,0,1-1.03-.028,1.372,1.372,0,0,1-.228-2.667,4.092,4.092,0,0,1,1.11-.113c4.656-.006,9.312-.017,13.968.01a1.317,1.317,0,0,0,1.325-.76c1.415-2.463,2.885-4.894,4.332-7.34.13-.219.231-.457.356-.705H231.165V82.7c2.537,0,5,0,7.47,0a6.807,6.807,0,0,1,1.306.063,1.281,1.281,0,0,1,1.122,1.482,1.266,1.266,0,0,1-1.277,1.248c-.311.026-.625.016-.937.016H219.5v38.217h20.073v-9a10.436,10.436,0,1,1,7.467-8.528Zm-4.5,2.906v38.172h30.109V109.106Zm1.58-2.883a16.853,16.853,0,0,0-.024-2.88,7.526,7.526,0,0,0-8.008-6.24,7.573,7.573,0,1,0,2.855,14.769c.272-.092.653-.381.673-.606.078-.883.032-1.776.032-2.708-3.243,1.293-5.24.983-6.756-.982a4.76,4.76,0,0,1-.057-5.751,4.554,4.554,0,0,1,5.416-1.6,6.721,6.721,0,0,1,2.365,1.87,4.661,4.661,0,0,1,.611,4.129Zm-5.529-1.594a1.937,1.937,0,0,0-1.991-1.912,1.97,1.97,0,0,0-1.895,1.935,1.993,1.993,0,0,0,1.962,1.97A1.965,1.965,0,0,0,238.589,104.63Z" transform="translate(-216.635 -71.026)"/><path class="c" d="M318.407,157.287q-5.1,0-10.2,0c-1.167,0-1.828-.52-1.826-1.4s.657-1.408,1.829-1.409q10.3-.005,20.592,0c1.121,0,1.74.494,1.767,1.365.028.888-.59,1.439-1.677,1.441C325.4,157.293,321.9,157.287,318.407,157.287Z" transform="translate(-242.433 -95.013)"/><path class="c" d="M318.421,148.863c-3.463,0-6.927-.009-10.39.006a1.453,1.453,0,0,1-1.621-1.105,1.388,1.388,0,0,1,1.309-1.691c.619-.059,1.247-.022,1.871-.022q9.407,0,18.813,0a5.9,5.9,0,0,1,.933.033,1.356,1.356,0,0,1,1.217,1.51,1.294,1.294,0,0,1-1.37,1.258c-1.31.025-2.62.011-3.931.011Z" transform="translate(-242.429 -92.589)"/><path class="c" d="M318.429,165.691c-3.432,0-6.865.032-10.3-.033a2.237,2.237,0,0,1-1.554-.739,1.328,1.328,0,0,1,1.211-2.024c.933-.052,1.871-.015,2.807-.015h17.785c.249,0,.5-.013.749.007a1.4,1.4,0,0,1,1.426,1.422,1.378,1.378,0,0,1-1.458,1.376c-.654.025-1.31.007-1.965.007Z" transform="translate(-242.422 -97.425)"/><path class="c" d="M311.28,140.454c-1.122,0-2.245.019-3.367,0a1.4,1.4,0,0,1-1.533-1.4,1.385,1.385,0,0,1,1.464-1.389q3.46-.048,6.921,0a1.365,1.365,0,0,1,1.429,1.413,1.34,1.34,0,0,1-1.451,1.372C313.588,140.475,312.433,140.453,311.28,140.454Z" transform="translate(-242.433 -90.173)"/><path class="c" d="M332.244,140.454a1.4,1.4,0,0,1-1.365-1.377,1.445,1.445,0,0,1,1.446-1.41,1.4,1.4,0,0,1,1.345,1.491A1.368,1.368,0,0,1,332.244,140.454Z" transform="translate(-249.475 -90.182)"/><path class="c" d="M337.77,140.454a1.4,1.4,0,0,1-1.365-1.377,1.445,1.445,0,0,1,1.446-1.41,1.4,1.4,0,0,1,1.345,1.491A1.368,1.368,0,0,1,337.77,140.454Z" transform="translate(-251.064 -90.182)"/><path class="d" d="M280.184,112.065c4.089,0,8.179.006,12.268-.006a1.573,1.573,0,0,1,1.645.812,1.38,1.38,0,0,1-1.066,1.977,5.584,5.584,0,0,1-.934.029q-11.894,0-23.787,0c-.125,0-.249,0-.375,0-1.083-.02-1.744-.55-1.751-1.4s.646-1.4,1.733-1.405Q274.05,112.059,280.184,112.065Z" transform="translate(-230.878 -82.821)"/><path class="d" d="M274.1,103.655c2,0,4,0,5.992,0,1.088,0,1.745.537,1.748,1.394s-.657,1.412-1.738,1.413q-6.086.012-12.172,0c-1.083,0-1.743-.549-1.746-1.4s.651-1.4,1.736-1.4C269.98,103.65,272.04,103.655,274.1,103.655Z" transform="translate(-230.878 -80.405)"/><path class="d" d="M270.114,157.432a8.014,8.014,0,0,1-1.754-.974q-3.827-3.725-7.561-7.546a2.257,2.257,0,0,1,.033-3.415q3.715-3.772,7.487-7.488a2.292,2.292,0,0,1,3.495.006q3.777,3.71,7.487,7.487a2.278,2.278,0,0,1-.04,3.487q-3.684,3.738-7.43,7.412A9.027,9.027,0,0,1,270.114,157.432Zm-1.524-4.907v-10.57l-5.258,5.269Zm2.924-.185,5.143-5.139-5.143-5.175Z" transform="translate(-229.111 -90.048)"/></g></g></svg>