<svg xmlns="http://www.w3.org/2000/svg" width="184" height="184" viewBox="0 0 184 184"><defs><style>.a{fill:#fff;}.b{fill:#00a1c1;}.c{fill:#003383;}.d{fill:#d3a354;}</style></defs><g transform="translate(-492.798 -26.828)"><circle class="a" cx="92" cy="92" r="92" transform="translate(492.798 26.828)"/><g transform="translate(536.797 66.427)"><path class="b" d="M573.349,58.827c1.947,1.389,4.015,2.638,5.82,4.192a30.69,30.69,0,0,1,10.811,19.94c.24,1.879.242,3.788.362,5.821h1.092q10.918,0,21.836,0c4.571,0,7.5,2.926,7.5,7.489q.005,25.543,0,51.086a7.046,7.046,0,0,1-7.456,7.466c-1.343,0-2.687.011-4.03,0-.982-.011-1.534-.514-1.554-1.368-.02-.891.55-1.424,1.583-1.434,1.468-.015,2.937.014,4.4-.009a4.174,4.174,0,0,0,4.234-4.221q.024-20.715.006-41.431c0-.12-.022-.241-.041-.42h-29.15l-1.316,6.556c.181.1.36.207.551.292,3.485,1.571,5.383,5.212,4.119,8.8-1.271,3.6-3,7.044-4.557,10.545a10.745,10.745,0,0,1-1.173,2.126,2.164,2.164,0,0,1-1.348.929,1.9,1.9,0,0,1-1.346-.912c-1.163-2.1-2.216-4.261-3.312-6.4-.092-.18-.212-.345-.413-.667V140.36c4.169.43,6.644,2.679,7.225,6.9a10.842,10.842,0,0,1,7.667,4.4,1.25,1.25,0,0,0,.876.336c1.373.035,2.749.009,4.123.017,1.124.006,1.712.5,1.712,1.405s-.588,1.4-1.714,1.4q-16.916,0-33.832,0H533.418c-5.135,0-6.909-1.234-8.62-6V94.638c.04-.046.1-.086.116-.14,1.185-4.018,3.46-5.718,7.66-5.718h22.692c.025-.423.039-.728.06-1.032.133-1.96.169-3.933.425-5.877a27.965,27.965,0,0,1,3.023-9.3,1.36,1.36,0,0,1,1.92-.772,1.389,1.389,0,0,1,.582,2.054c-.13.283-.281.557-.416.838a26.526,26.526,0,0,0-2.49,8.682c-.306,2.9-.269,2.91,2.536,3.771,5.157,1.583,10.451,1.666,15.77,1.39a30.609,30.609,0,0,0,9.685-1.93,1.368,1.368,0,0,0,1.029-1.639c-.811-9.982-5.753-17.4-14.015-22.8a.919.919,0,0,0-1.162,0,32.379,32.379,0,0,0-6.6,5.5c-.771.828-1.519.881-2.19.219a1.392,1.392,0,0,1,.154-2.137,34.786,34.786,0,0,1,3.255-3.092c1.734-1.356,3.589-2.558,5.391-3.826Zm-45.71,47.081c-.014.256-.029.409-.029.563q0,20.62.005,41.241a4.175,4.175,0,0,0,4.349,4.295q8.9.022,17.806-.021a1.665,1.665,0,0,0,1.122-.581,10.61,10.61,0,0,1,6.847-4.04c.542-.083.715-.261.787-.789a7.064,7.064,0,0,1,5.29-5.909c.57-.142,1.162-.2,1.769-.295V127.118l-.529,1.031c-1.054,2.054-2.086,4.119-3.17,6.156a1.432,1.432,0,0,1-2.693.019c-.389-.676-.756-1.365-1.114-2.058a57.529,57.529,0,0,1-4.688-10.693,7.287,7.287,0,0,1,3.78-8.6c.3-.154.61-.294.952-.458-.443-2.211-.881-4.4-1.324-6.608ZM580.072,123.3a11.291,11.291,0,0,0,3.011-5.226,112.98,112.98,0,0,0,4.079-22.339c.167-2.134.223-4.277.329-6.4a49.823,49.823,0,0,1-29.348-.045c0,.274-.018.524,0,.769.384,4.507.506,9.058,1.23,13.512.834,5.129,2.157,10.182,3.361,15.246a8.753,8.753,0,0,0,2.8,4.479,7.38,7.38,0,0,1,1.46-6.517,7.286,7.286,0,0,1,5.988-2.766C576.734,114.045,581.073,117.484,580.072,123.3Zm37.893-20.283c0-2.357,0-4.6,0-6.85-.007-2.879-1.711-4.573-4.613-4.575q-11.047-.006-22.093,0c-.328,0-.657.028-.92.041-.353,3.855-.694,7.6-1.04,11.383ZM555.236,91.657a1.342,1.342,0,0,0-.27-.056c-7.8,0-15.6-.023-23.4.014a3.888,3.888,0,0,0-3.869,3.531c-.165,2.6-.041,5.218-.041,7.837h28.622Zm13.372,39.173-.164.023v2.286c0,2.843.011,5.686-.005,8.528-.009,1.455-.639,1.949-2.079,1.729a5,5,0,0,0-1.389-.088,4.2,4.2,0,0,0-3.652,4.716c.169,1.524-.333,2.08-1.854,2.07a8.43,8.43,0,0,0-1.309.05,6.985,6.985,0,0,0-3.859,1.811h37.017a7.42,7.42,0,0,0-5.108-1.871c-1.657.037-2.123-.491-1.94-2.145a4.164,4.164,0,0,0-4.862-4.582c-1.724.293-2.272-.176-2.274-1.962q-.005-4.826,0-9.652v-.886c-1.06,1.665-1.962,3.355-2.848,5.055-.333.64-.712,1.18-1.536,1.161-.781-.017-1.13-.548-1.447-1.152C570.409,134.221,569.506,132.528,568.609,130.831Zm3.859,1.8.427-.071a50.837,50.837,0,0,0,4.5-10.619,2.712,2.712,0,0,0,.039-.93,4.665,4.665,0,0,0-5.554-4.091,4.427,4.427,0,0,0-3.485,5.791C569.6,126.074,571.1,129.331,572.468,132.633Zm-12.217-1.8.385-.067c.83-1.707,1.682-3.4,2.465-5.132a1.114,1.114,0,0,0-.224-.947,14.249,14.249,0,0,1-3.071-5.823c-.3-1.158-.655-2.3-.986-3.459a4.3,4.3,0,0,0-2.621,5.692C557.425,124.384,558.889,127.588,560.251,130.829Zm24.78.115A53.944,53.944,0,0,0,589.55,120.5a4.257,4.257,0,0,0-2.8-5.058c-.089.289-.193.578-.267.873-.781,3.1-1.64,6.162-3.961,8.556a.732.732,0,0,0-.11.658C583.24,127.3,584.108,129.05,585.031,130.944Z" transform="translate(-524.798 -58.827)"/><path class="c" d="M630.406,160.316c2.686,0,5.372-.008,8.058.005,1.071,0,1.563.417,1.615,1.279a1.281,1.281,0,0,1-1.211,1.484,6.812,6.812,0,0,1-.935.04q-7.636,0-15.274,0c-1.519,0-2.183-.448-2.163-1.447.019-.962.64-1.361,2.131-1.362Q626.516,160.314,630.406,160.316Z" transform="translate(-552.329 -88.023)"/><path class="c" d="M633.732,149.524c2.061,0,4.123-.008,6.184,0,1.171.006,1.688.455,1.679,1.406-.009.908-.514,1.385-1.618,1.39q-6.277.027-12.555,0c-1.1-.005-1.7-.579-1.663-1.47.034-.848.615-1.32,1.7-1.326C629.547,149.516,631.64,149.525,633.732,149.524Z" transform="translate(-553.843 -84.919)"/><path class="c" d="M633.814,171.111c2.123,0,4.245-.023,6.367.01a1.373,1.373,0,0,1,1.318,2c-.326.732-.979.794-1.654.794q-5.665,0-11.331,0c-.437,0-.876.017-1.31-.019-.938-.078-1.4-.566-1.386-1.425a1.268,1.268,0,0,1,1.441-1.354C629.444,171.094,631.629,171.111,633.814,171.111Z" transform="translate(-553.86 -91.128)"/><path class="c" d="M637.138,138.733c1.467,0,2.933-.014,4.4,0,1.093.014,1.595.474,1.588,1.4-.006.882-.491,1.381-1.516,1.39q-4.493.041-8.987,0c-1.063-.009-1.571-.541-1.543-1.46.027-.879.518-1.318,1.564-1.331C634.142,138.719,635.64,138.733,637.138,138.733Z" transform="translate(-555.374 -81.813)"/><path class="c" d="M545.6,160.317c2.716,0,5.432-.009,8.148,0,1.119.006,1.658.521,1.6,1.476a1.225,1.225,0,0,1-1.127,1.275,5.114,5.114,0,0,1-.746.051q-7.913,0-15.828,0c-.784,0-1.533-.076-1.8-.993-.292-1.021.338-1.8,1.5-1.809C540.1,160.3,542.848,160.317,545.6,160.317Z" transform="translate(-527.957 -88.023)"/><path class="c" d="M543.764,149.524c2.06,0,4.12-.009,6.181,0,1.133.006,1.634.421,1.666,1.323.034.952-.491,1.468-1.628,1.473q-6.274.027-12.548,0c-1.1,0-1.608-.479-1.619-1.387-.011-.952.506-1.4,1.674-1.409C539.581,149.516,541.673,149.524,543.764,149.524Z" transform="translate(-527.968 -84.919)"/><path class="c" d="M543.756,171.108c2.06,0,4.12-.009,6.18,0,1.17.006,1.685.457,1.674,1.41-.011.907-.516,1.382-1.62,1.386q-6.274.027-12.547,0c-1.138,0-1.661-.521-1.627-1.473.032-.9.534-1.317,1.667-1.323C539.573,171.1,541.665,171.108,543.756,171.108Z" transform="translate(-527.967 -91.128)"/><path class="c" d="M541.83,138.733c1.5,0,3-.015,4.494.005,1.033.014,1.522.469,1.538,1.356a1.3,1.3,0,0,1-1.474,1.428q-4.54.046-9.081,0c-1.015-.009-1.5-.526-1.491-1.413s.5-1.357,1.521-1.371C538.834,138.717,540.333,138.733,541.83,138.733Z" transform="translate(-527.968 -81.813)"/><path class="b" d="M589.2,109.555a7.239,7.239,0,1,1-7.214,7.22A7.241,7.241,0,0,1,589.2,109.555Zm.065,2.81a4.431,4.431,0,0,0-4.469,4.44,4.445,4.445,0,0,0,8.889-.045A4.43,4.43,0,0,0,589.262,112.365Z" transform="translate(-541.25 -73.421)"/><path class="d" d="M536.731,113.7a1.379,1.379,0,0,1-1.346-1.4,1.362,1.362,0,1,1,2.723.03A1.384,1.384,0,0,1,536.731,113.7Z" transform="translate(-527.844 -73.811)"/><path class="d" d="M554.688,112.31a1.362,1.362,0,1,1-2.72-.076,1.361,1.361,0,0,1,2.72.076Z" transform="translate(-532.614 -73.811)"/><path class="d" d="M546.382,112.312a1.337,1.337,0,1,1-2.665-.083,1.334,1.334,0,1,1,2.665.083Z" transform="translate(-530.24 -73.811)"/></g></g></svg>