<svg xmlns="http://www.w3.org/2000/svg" width="240" height="80" viewBox="0 0 240 80"><defs><style>.a{fill:#fb9335;}.b{fill:none;}.c{fill:#fff;}.d{fill:#003e92;}</style></defs><g transform="translate(-1158.108 -1711)"><path class="a" d="M32.018,0H80V80H0V32.018A32.018,32.018,0,0,1,32.018,0Z" transform="translate(1398.109 1711) rotate(90)"/><g transform="translate(1318.109 1711)"><circle class="b" cx="40" cy="40" r="40"/><g transform="translate(16.711 16.711)"><path class="c" d="M482.068,462.681c-.054.121-.113.239-.16.362a2.456,2.456,0,0,1-2.3,1.633q-6.868.015-13.735,0a2.468,2.468,0,0,1-2.446-2.486c-.018-1.44,0-2.881,0-4.321v-.524h-9.286v.489c0,1.4,0,2.79,0,4.185a2.509,2.509,0,0,1-2.642,2.664q-6.686.005-13.372,0a2.5,2.5,0,0,1-2.628-2.628q-.007-6,0-12.008a2.5,2.5,0,0,1,2.618-2.641q6.708-.011,13.417,0a2.507,2.507,0,0,1,2.607,2.61c0,.417,0,.835,0,1.382l3.694-3.95c-.1-.117-.177-.224-.267-.321q-2.994-3.208-5.991-6.415c-.612-.653-1.089-.644-1.714.024q-2.034,2.176-4.068,4.353a2.546,2.546,0,0,1-.324.317.623.623,0,0,1-.868-.049.64.64,0,0,1-.091-.867,1.725,1.725,0,0,1,.235-.277q2.079-2.226,4.162-4.452a2.279,2.279,0,0,1,3.634-.009q2.9,3.082,5.777,6.179l.509.544a4.875,4.875,0,0,1,.309-.42q2.93-3.144,5.867-6.282a2.285,2.285,0,0,1,3.666,0q3.42,3.652,6.827,7.313a.9.9,0,0,0,.744.325c1.03-.02,2.062-.009,3.093-.007a2.52,2.52,0,0,1,2.659,1.9.415.415,0,0,0,.079.1v2.638c-.224.31-.482.564-.905.41s-.473-.5-.462-.892c.013-.469,0-.939,0-1.409,0-.952-.429-1.38-1.39-1.38q-6.57,0-13.139,0c-.956,0-1.385.432-1.385,1.387q0,5.887,0,11.775c0,.959.426,1.387,1.381,1.387q6.57,0,13.139,0c.983,0,1.394-.419,1.394-1.418,0-2.076,0-4.152,0-6.228,0-.394.057-.747.474-.883s.692.091.9.434Zm-37.252.637q3.3,0,6.6,0a1.189,1.189,0,0,0,1.36-1.364q0-5.912,0-11.825a1.192,1.192,0,0,0-1.367-1.361q-6.595,0-13.189,0a1.189,1.189,0,0,0-1.357,1.368q0,5.912,0,11.825a1.186,1.186,0,0,0,1.364,1.357Q441.519,463.32,444.816,463.318ZM473.931,447.4c-2.19-2.344-4.287-4.6-6.4-6.836a.9.9,0,0,0-1.459.055q-5.871,6.276-11.734,12.561a.623.623,0,0,0-.2.337c-.017.8-.008,1.6-.008,2.4h9.284V455.4q0-2.615,0-5.23a2.537,2.537,0,0,1,2.769-2.768q3.57,0,7.14,0Z" transform="translate(-435.49 -418.106)"/><path class="c" d="M462.25,413.957a1.493,1.493,0,0,1,.836,1.009c.071.247.178.482.27.723.413,1.093.41,1.1,1.5,1.52a.688.688,0,0,0,.461-.03c.571-.239,1.133-.5,1.7-.759a1.135,1.135,0,0,1,1.372.235c1.359,1.3,1.363,1.293.583,3.016a.761.761,0,0,1-.078.163c-.565.709-.242,1.386.087,2.051a.674.674,0,0,0,.345.25c.562.224,1.133.427,1.7.647a1.08,1.08,0,0,1,.8,1.172c0,.363,0,.728,0,1.091a1.045,1.045,0,0,1-.728,1.042c-.578.224-1.167.422-1.731.677a1.362,1.362,0,0,0-.472.47,1.651,1.651,0,0,0,.056,1.967,8.483,8.483,0,0,1,.453.989,1.077,1.077,0,0,1-.252,1.289c-.255.26-.514.515-.771.772a1.1,1.1,0,0,1-1.331.244c-.566-.254-1.123-.529-1.7-.759a1.129,1.129,0,0,0-.585,0,1.756,1.756,0,0,0-1.429,1.526,6.423,6.423,0,0,1-.3.808,2.011,2.011,0,0,1-.128.291c-.508.867-1.36.543-2.1.584a1.05,1.05,0,0,1-1.1-.712c-.22-.563-.44-1.127-.638-1.7a1,1,0,0,0-.522-.559,1.717,1.717,0,0,0-1.931.072,7.672,7.672,0,0,1-1.032.47,1.066,1.066,0,0,1-1.253-.235c-1.432-1.408-1.437-1.287-.623-3.044a.563.563,0,0,1,.061-.121,1.754,1.754,0,0,0-.067-2.094.676.676,0,0,0-.342-.25c-.562-.224-1.132-.426-1.7-.645a1.086,1.086,0,0,1-.809-1.171c0-.364,0-.728,0-1.091a1.049,1.049,0,0,1,.721-1.049c.577-.228,1.169-.419,1.734-.671a1.308,1.308,0,0,0,.473-.469,1.649,1.649,0,0,0-.048-1.965,7.247,7.247,0,0,1-.471-1.031,1.041,1.041,0,0,1,.231-1.212c.252-.262.512-.518.771-.771a1.115,1.115,0,0,1,1.442-.252c.526.232,1.04.495,1.577.7a1.308,1.308,0,0,0,.664.01,1.649,1.649,0,0,0,1.366-1.413,3.259,3.259,0,0,1,.391-1.012,5.138,5.138,0,0,1,.722-.764Zm5.256,3.74c-.667.3-1.285.632-1.941.852a2.061,2.061,0,0,1-1.079-.011,4.364,4.364,0,0,1-1.211-.5,2,2,0,0,1-.74-.727,11.167,11.167,0,0,1-.651-1.693c-.093-.291-.272-.313-.514-.3s-.469-.061-.57.285c-.139.477-.373.928-.513,1.406a1.533,1.533,0,0,1-1.2,1.159c-.3.074-.573.3-.877.363a2.284,2.284,0,0,1-1.081.021,11.6,11.6,0,0,1-1.7-.755c-.3-.151-.405.07-.56.216s-.32.251-.178.527c.277.539.511,1.1.754,1.653a3.229,3.229,0,0,1-1.291,3.1c-.55.215-1.1.441-1.658.619-.312.1-.273.309-.275.532s-.029.437.279.532c.476.148.927.376,1.4.518a1.534,1.534,0,0,1,1.147,1.162,4.7,4.7,0,0,0,.391.917,1.163,1.163,0,0,1,.023,1.089c-.258.547-.481,1.112-.757,1.65-.143.277-.012.41.159.575s.308.343.613.184a10.507,10.507,0,0,1,1.658-.734,2,2,0,0,1,1.039.009c.42.1.807.338,1.218.486a1.2,1.2,0,0,1,.778.765c.2.555.435,1.1.617,1.659.1.3.28.335.546.333s.452-.02.551-.325c.181-.561.419-1.1.615-1.66a1.229,1.229,0,0,1,.816-.786,11.512,11.512,0,0,0,1.13-.468,1.242,1.242,0,0,1,1.134-.018c.493.231,1,.43,1.487.68a.54.54,0,0,0,.746-.109.5.5,0,0,0,.1-.7c-.215-.417-.362-.869-.588-1.279a1.467,1.467,0,0,1,.025-1.585,3.555,3.555,0,0,0,.341-.839,1.285,1.285,0,0,1,.907-.926c.517-.172,1.012-.41,1.532-.565.346-.1.319-.327.335-.589a.453.453,0,0,0-.35-.536,11.433,11.433,0,0,1-1.65-.634,2.035,2.035,0,0,1-.724-.746c-.217-.357-.314-.784-.5-1.164a1.219,1.219,0,0,1-.02-1.131c.3-.628.573-1.266.857-1.9Z" transform="translate(-438.051 -413.957)"/><path class="c" d="M486.364,435.342q0,3.567,0,7.136a2.778,2.778,0,0,1-.009.409.674.674,0,0,1-1.328.065,2.055,2.055,0,0,1-.026-.5q0-7.069,0-14.138c0-.945-.272-1.219-1.215-1.22h-4.637a1.909,1.909,0,0,1-.452-.023.636.636,0,0,1-.539-.727.6.6,0,0,1,.619-.6c1.879-.009,3.76-.047,5.636.023a2.172,2.172,0,0,1,1.949,2.255C486.369,430.462,486.364,432.9,486.364,435.342Z" transform="translate(-442.601 -415.918)"/><path class="c" d="M438.869,435.3q0-3.548,0-7.094a2.266,2.266,0,0,1,2.447-2.476c1.591-.006,3.183,0,4.775,0,.614,0,.923.237.914.692s-.329.671-.944.671c-1.562,0-3.124,0-4.684,0-.845,0-1.144.3-1.144,1.154q0,7.072,0,14.143c0,.121,0,.243,0,.364-.016.491-.281.8-.684.8s-.676-.308-.677-.8Q438.865,439.034,438.869,435.3Z" transform="translate(-436.053 -415.919)"/><path class="c" d="M475.474,458.6c0-1.015,0-2.029,0-3.043a1.165,1.165,0,0,1,1.869-1.112c1.824,1.014,3.643,2.04,5.468,3.051a1.183,1.183,0,0,1,0,2.216c-1.813,1-3.618,2.021-5.428,3.028-1.058.589-1.9.082-1.907-1.141C475.471,460.6,475.474,459.6,475.474,458.6Zm6.515,0-5.122-2.862v5.66a.565.565,0,0,0,.155-.028C478.647,460.472,480.272,459.565,481.989,458.606Z" transform="translate(-442.154 -420.667)"/><path class="c" d="M445.612,463.97q-2.225,0-4.451,0a2.037,2.037,0,0,1-.494-.041.666.666,0,0,1,.051-1.3,2.121,2.121,0,0,1,.406-.022q4.474,0,8.947,0c.136,0,.313-.039.4.031a1.485,1.485,0,0,1,.522.59.551.551,0,0,1-.437.688,1.679,1.679,0,0,1-.493.052Q447.836,463.973,445.612,463.97Z" transform="translate(-436.271 -422.063)"/><path class="c" d="M445.55,456.087h-4.359a2.744,2.744,0,0,1-.453-.021.667.667,0,0,1,0-1.317,2.577,2.577,0,0,1,.452-.024q4.406,0,8.81,0c.105,0,.212,0,.317,0a.668.668,0,0,1,.7.677.657.657,0,0,1-.7.676c-.226.016-.454.006-.681.007Z" transform="translate(-436.271 -420.751)"/><path class="c" d="M445.579,460.031q-2.2,0-4.4,0a2,2,0,0,1-.539-.048.666.666,0,0,1,.025-1.275,1.989,1.989,0,0,1,.5-.038q4.428,0,8.855,0a2.681,2.681,0,0,1,.452.025.666.666,0,0,1,.017,1.307,2.409,2.409,0,0,1-.5.031Q447.781,460.033,445.579,460.031Z" transform="translate(-436.271 -421.409)"/><path class="c" d="M462.5,430.251a4.643,4.643,0,1,1,4.654-4.6A4.631,4.631,0,0,1,462.5,430.251Zm.025-1.364a3.278,3.278,0,1,0-3.288-3.236A3.266,3.266,0,0,0,462.521,428.887Z" transform="translate(-439.22 -415.125)"/></g></g><g transform="translate(1151.108 1711)"><g transform="translate(91.8 0)"><path class="d" d="M450.28,341.42,449,342.7h1.28c.05,0,4.928-.085,5.1-6.08h.017V331.5h-3.84a2.559,2.559,0,0,0-2.56,2.56v3.84h4.48v-.64l-2.651-.379a.638.638,0,0,1-.549-.634V334.7c0-.706,0-2.56,1.92-2.56h2.56v4.16C454.76,341.363,450.437,341.42,450.28,341.42Z" transform="translate(-420.2 -331.5)"/><path class="d" d="M464,336.3v24a4.8,4.8,0,0,1-4.8,4.8,3.2,3.2,0,0,1-3.2-3.2V350.7h-9.6a6.4,6.4,0,0,0-6.4,6.4v9.6h12.542c-1.3,7.976-7.392,8-7.742,8l-4.8,4.8h3.2c.118,0,10.92-.166,12.579-12.637A4.785,4.785,0,0,0,459.2,368.3h3.2a6.4,6.4,0,0,0,6.4-6.4V331.5Z" transform="translate(-425.6 -331.5)"/><path class="d" d="M435,363.3v3.2a4.553,4.553,0,0,0,4.8-4.8V334.5l-4.8,4.8Z" transform="translate(-428.6 -329.7)"/><path class="d" d="M450.2,331.5H435.8a4.553,4.553,0,0,0-4.8,4.8h14.4Z" transform="translate(-431 -331.5)"/></g><g transform="translate(7 0)"><path class="a" d="M403.2,364.5v-32l-3.2,3.2v32A3.073,3.073,0,0,0,403.2,364.5Z" transform="translate(-364.8 -330.9)"/><path class="a" d="M424,363.9h3.2l8-6.4h-4.8Z" transform="translate(-350.4 -315.9)"/><path class="a" d="M422.2,331.5h-4.8l-6.4,8h3.2Z" transform="translate(-358.2 -331.5)"/><path class="a" d="M442.45,368.3c.123,0,11.923-.175,12.75-14.4a6.4,6.4,0,0,0-6.4-6.4H421.6l19.2-16h-6.4l-16,16v6.4H420l.547-1.532a2.512,2.512,0,0,1,2.365-1.667H447.2c1.765,0,6.4,0,6.4,4.8-1.568,9.653-10.792,9.6-11.15,9.6l-.05.05v-.05H415.2a3.2,3.2,0,0,1-3.2-3.2v-1.6l-1.6,1.6v1.6c0,12.654-10.808,12.8-11.2,12.8l-3.2,3.2h3.2c.118,0,10.92-.166,12.579-12.637A4.784,4.784,0,0,0,415.2,368.3h27.25Z" transform="translate(-367.2 -331.5)"/><path class="a" d="M408.4,357.3v-6.4a6.4,6.4,0,0,0-6.4-6.4h-9.6v11.2c0,12.654-10.808,12.8-11.2,12.8l-3.2,3.2h3.2c.128,0,12.8-.182,12.8-16v-9.6h6.4c4.8,0,4.8,4.635,4.8,6.4v3.869a1.6,1.6,0,0,1-1.375,1.584l-6.626.947v1.6h11.2Z" transform="translate(-378 -323.7)"/></g><g transform="translate(7 54.4)"><path class="d" d="M380.56,381.713V365.5L378,368.06v14.507a3.413,3.413,0,0,0,3.413,3.413h2.56v-1.707h-.853A2.559,2.559,0,0,1,380.56,381.713Z" transform="translate(-378 -365.5)"/><path class="d" d="M404.348,365.5H402.3a1.365,1.365,0,0,0-1.366,1.365v2.048h3.414Z" transform="translate(-364.241 -365.5)"/><path class="d" d="M406.587,382.353a2.559,2.559,0,0,1-2.56-2.56V368.7l-2.56,2.56v9.387a3.413,3.413,0,0,0,3.413,3.413h2.56v-1.707Z" transform="translate(-363.92 -363.58)"/><path class="d" d="M395.228,368.7H390.96l-2.56,2.56v9.387a3.413,3.413,0,0,0,3.413,3.413h4.267l2.56-2.56v-9.387A3.413,3.413,0,0,0,395.228,368.7Zm.853,13.653h-2.56a2.559,2.559,0,0,1-2.56-2.56v-9.386h2.56a2.559,2.559,0,0,1,2.56,2.56Z" transform="translate(-371.76 -363.58)"/><g transform="translate(54.187 5.12)"><path class="a" d="M460.347,368.7H458.64a3.393,3.393,0,0,0-2.56,1.177,3.393,3.393,0,0,0-2.56-1.177h-1.707a3.413,3.413,0,0,0-3.413,3.413V384.06h1.708V372.967c0-.94,0-3.414,2.56-3.414s2.56,2.474,2.56,3.414V384.06h1.705V372.967c0-.94,0-3.414,2.56-3.414s2.561,2.474,2.561,3.414V384.06h1.707V372.113A3.413,3.413,0,0,0,460.347,368.7Z" transform="translate(-389.947 -368.7)"/><path class="a" d="M416.987,368.7h-3.415l-1.706,1.707v10.24a3.413,3.413,0,0,0,3.413,3.413h3.6a6.073,6.073,0,0,1-5.309,3.413l-1.706,1.708h1.706c.069,0,6.827-.1,6.827-8.533v-8.534A3.413,3.413,0,0,0,416.987,368.7Zm-3.415,11.093v-10.24h2.56c2.56,0,2.56,2.474,2.56,3.414v10.24h-2.56C413.573,383.207,413.573,380.734,413.573,379.793Z" transform="translate(-411.867 -368.7)"/><path class="a" d="M443.333,379.793v-7.68a3.413,3.413,0,0,0-3.413-3.413h-4.267l-.853.853h4.268c2.56,0,2.56,2.474,2.56,3.414v6.826c0,.941,0,3.414-2.56,3.414s-2.56-2.474-2.56-3.414v-2.917a.854.854,0,0,1,.733-.845l3.533-.5v-.854H434.8v5.974a3.413,3.413,0,0,0,3.413,3.413h1.707a3.392,3.392,0,0,0,2.56-1.177,3.393,3.393,0,0,0,2.56,1.177h.853v-.853C443.333,383.207,443.333,380.734,443.333,379.793Z" transform="translate(-398.107 -368.7)"/><path class="a" d="M427.28,368.7a3.413,3.413,0,0,0-3.413,3.413V384.06h1.706V372.967c0-.94,0-3.414,2.56-3.414h1.707l.853-.853H427.28Z" transform="translate(-404.667 -368.7)"/></g></g></g></g></svg>