<svg xmlns="http://www.w3.org/2000/svg" width="271.992" height="80" viewBox="0 0 271.992 80"><defs><style>.a{fill:#0073d8;}.b{fill:none;}.c{fill:#fff;}.d{fill:#003e92;}</style></defs><g transform="translate(-440 -1711)"><path class="a" d="M32.018,0H80V80H0V32.018A32.018,32.018,0,0,1,32.018,0Z" transform="translate(711.992 1711) rotate(90)"/><g transform="translate(631.992 1711)"><circle class="b" cx="40" cy="40" r="40"/><g transform="translate(16.718 22.217)"><path class="c" d="M736.986,314.232a2.045,2.045,0,0,1,1.224-1.25q10.519-4.837,21.027-9.7a2.229,2.229,0,0,1,2.079,0c1.1.543,2.225,1.029,3.335,1.55.471.22.635.532.529.931-.124.469-.6.649-1.144.4-.981-.441-1.974-.857-2.922-1.361a1.692,1.692,0,0,0-1.687,0Q749.2,309.583,738.95,314.3c-.133.062-.262.132-.459.231.664.311,1.261.592,1.859.869q3.81,1.768,7.625,3.525a.81.81,0,0,0,.586.061c2.811-1.276,5.612-2.573,8.341-3.831a6,6,0,0,1,.229-1.322,2.388,2.388,0,0,1,1.725-1.287,4.741,4.741,0,0,1,3.658.35,1.777,1.777,0,0,1-.1,3.31,4.989,4.989,0,0,1-4.015.142.732.732,0,0,0-.5-.017q-3.8,1.732-7.589,3.493a.957.957,0,0,0-.138.1c.147.075.274.145.406.207,3.078,1.421,6.154,2.846,9.24,4.251a.966.966,0,0,0,.712.023q10.656-4.866,21.3-9.764c.054-.025.1-.061.208-.122-.2-.1-.368-.194-.542-.273l-14.673-6.782c-.1-.044-.192-.088-.287-.137-.484-.246-.657-.623-.472-1.027a.752.752,0,0,1,1.083-.315c1.323.6,2.641,1.213,3.961,1.822l11.173,5.154.247.113a1.534,1.534,0,0,1-.005,2.9c-1.912.878-3.815,1.777-5.737,2.63a.8.8,0,0,0-.555.881c.021,3.608.011,7.217.012,10.824a4.957,4.957,0,0,1-.653,2.745,3.13,3.13,0,0,1-1.466,1.239,35.767,35.767,0,0,1-15.909,2.637,35.067,35.067,0,0,1-7.307-1.117c-.1-.027-.207-.038-.39-.071,0,.288.013.552,0,.816a2.143,2.143,0,0,1-4.207.463,11.865,11.865,0,0,1-.045-2.178.868.868,0,0,0-.486-.889,3.317,3.317,0,0,1-1.418-2.621,9.543,9.543,0,0,1-.046-1.136q-.005-5.411.006-10.823a.657.657,0,0,0-.448-.717c-1.838-.821-3.657-1.684-5.492-2.513a2.308,2.308,0,0,1-1.39-1.272ZM774.8,329c-.834.329-1.547.621-2.267.892A.74.74,0,1,1,772,328.52c.446-.187.89-.389,1.351-.532a1.913,1.913,0,0,0,1.384-2.01c.031-2.062.016-4.123.018-6.185a1.483,1.483,0,0,0-.037-.216c-.918.422-1.809.828-2.7,1.239q-5.381,2.482-10.759,4.971a2,2,0,0,1-1.823.043c-3.225-1.5-6.462-2.974-9.7-4.457-.187-.085-.375-.166-.632-.279v.522c0,2.213.008,4.427-.008,6.64a.521.521,0,0,0,.434.6,35.886,35.886,0,0,0,8.015,1.509,36.543,36.543,0,0,0,10.127-.644c.652-.135,1.3-.307,1.946-.453a.746.746,0,0,1,.962.524.731.731,0,0,1-.565.9c-.115.037-.233.062-.351.092a38.064,38.064,0,0,1-19.672-.25c-.272-.078-.546-.151-.82-.226-.163.768-.1.833.427,1.251a2.349,2.349,0,0,1,.742.938,4.433,4.433,0,0,1,.166,1.338c.013.249.065.378.337.43,1.514.293,3.015.674,4.539.9a35.876,35.876,0,0,0,13.007-.562,22.224,22.224,0,0,0,5.2-1.716,1.789,1.789,0,0,0,1.057-1.437C774.743,330.655,774.751,329.853,774.8,329Zm-28.983-9.429c0,2.236-.029,4.385.012,6.532a1.924,1.924,0,0,0,1.806,2v-.32c0-2.377,0-4.753-.007-7.13a.418.418,0,0,0-.167-.319C746.934,320.07,746.4,319.835,745.814,319.567Zm3.2,15.386c0-.56,0-1.121,0-1.681,0-.425-.251-.578-.648-.577s-.643.164-.646.584c-.006,1.075,0,2.15,0,3.225,0,.421.233.593.633.6.468,0,.651-.149.662-.6C749.029,335.983,749.019,335.468,749.018,334.953Zm-2.778-2.564c.443-.361.854-.691,1.26-1.027.052-.042.121-.108.122-.165.011-.437.013-.876,0-1.313a.28.28,0,0,0-.152-.188c-.536-.234-1.077-.456-1.684-.71C745.867,330.2,745.548,331.4,746.24,332.389ZM760.3,313.707c-.558.188-1.116.346-1.648.566-.28.116-.253.326-.005.515a3.424,3.424,0,0,0,3.234.012c.281-.2.284-.415-.012-.542C761.383,314.048,760.867,313.9,760.3,313.707Z" transform="translate(-736.986 -303.027)"/></g></g><g transform="translate(440 1711)"><g transform="translate(28.8)"><path class="d" d="M709.9,969.5h-.64c0,5.062-4.323,5.12-4.48,5.12h0l-1.28,1.28h1.28C704.831,975.9,709.9,975.826,709.9,969.5Z" transform="translate(-703.5 -964.7)"/><rect class="d" width="0.64" height="4.48" transform="translate(5.76 0.64)"/><path class="d" d="M704.78,969.7c0-.706,0-2.56,1.92-2.56h3.2v-.64h-3.84a2.559,2.559,0,0,0-2.56,2.56v3.84h4.48v-.64l-2.651-.379a.639.639,0,0,1-.549-.634Z" transform="translate(-703.5 -966.5)"/></g><path class="d" d="M710.5,989.7l-1.6,4.8H694.5v-9.6a6.4,6.4,0,0,1,6.4-6.4h9.6Z" transform="translate(-680.1 -959.3)"/><path class="d" d="M710.5,986.5h-3.2c0,11.2-7.608,11.2-8,11.2h0l-4.8,4.8h3.2C697.828,1002.5,710.5,1002.318,710.5,986.5Z" transform="translate(-680.1 -954.5)"/><path class="d" d="M705.5,1000.1l3.2,3.2h1.6a6.4,6.4,0,0,0,6.4-6.4V966.5l-4.8,4.8v24a4.8,4.8,0,0,1-4.8,4.8Z" transform="translate(-673.5 -966.5)"/><path class="d" d="M689.5,1001.5c2.134,0,4.8-2.866,4.8-6.4V969.5l-4.8,4.8v27.2Z" transform="translate(-683.1 -964.7)"/><path class="d" d="M709.9,992.5h-1.6a4.8,4.8,0,0,1-4.8-4.8v-1.6l1.6-1.6v1.6a3.2,3.2,0,0,0,3.2,3.2h1.6Z" transform="translate(-674.7 -955.7)"/><path class="d" d="M685.5,971.3c0-2.134,2.866-4.8,6.4-4.8h12.8l-4.8,4.8Z" transform="translate(-685.5 -966.5)"/><g transform="translate(48)"><path class="a" d="M750.1,998.5a1.537,1.537,0,0,0,1.6-1.6V966.5l-3.2,3.2Z" transform="translate(-695.7 -966.5)"/><path class="a" d="M779.5,1002.1a3.074,3.074,0,0,0,3.2-3.2V968.5l-3.2,3.2v30.4Z" transform="translate(-677.1 -965.3)"/><path class="a" d="M783.3,979.7c1.765,0,6.4,0,6.4,4.8h0l1.6-1.6h0a6.4,6.4,0,0,0-6.4-6.4H754.5v6.4h1.6l.547-1.533a2.511,2.511,0,0,1,2.365-1.667Z" transform="translate(-692.1 -960.5)"/><path class="a" d="M775.3,966.5h-4.8l-16,16h3.2Z" transform="translate(-692.1 -966.5)"/><path class="a" d="M781.881,982.1c-1.568,9.654-10.792,9.6-11.15,9.6l-3.2,3.2h3.2c.123,0,11.923-.174,12.75-14.4l-1.6,1.6Z" transform="translate(-684.281 -958.1)"/><path class="a" d="M755.9,992.5h-1.6a4.8,4.8,0,0,1-4.8-4.8v-1.6l1.6-1.6v1.6a3.2,3.2,0,0,0,3.2,3.2h1.6Z" transform="translate(-695.1 -955.7)"/><rect class="a" width="25.6" height="3.2" transform="translate(60.8 33.6)"/><rect class="a" width="1.6" height="8" transform="translate(17.6 28.8) rotate(180)"/><path class="a" d="M738.3,987.5c0-1.765,0-6.4-4.8-6.4h-8v-1.6h9.6a6.4,6.4,0,0,1,6.4,6.4v9.6H730.3v-1.6l6.626-.947a1.6,1.6,0,0,0,1.374-1.584Z" transform="translate(-709.5 -958.7)"/><path class="a" d="M750.3,987.5c0-1.765,0-6.4-4.8-6.4h-8v-1.6h9.6a6.4,6.4,0,0,1,6.4,6.4v9.6H742.3v-1.6l6.626-.947a1.6,1.6,0,0,0,1.374-1.584Z" transform="translate(-702.3 -958.7)"/><path class="a" d="M775.5,969.7c0-1.422,1.91-3.2,4.267-3.2H791.5l-3.2,3.2Z" transform="translate(-679.5 -966.5)"/><rect class="a" width="4.8" height="1.6" transform="translate(35.2 35.2)"/><path class="a" d="M727.9,979.5v8c0,4.8-4.635,4.8-6.4,4.8v3.2h1.6a6.4,6.4,0,0,0,6.4-6.4v-9.6Z" transform="translate(-711.9 -958.7)"/><path class="a" d="M726.7,987.5h-6.4a4.8,4.8,0,0,0-4.8,4.8v1.6l1.6,1.6v-1.6a3.2,3.2,0,0,1,3.2-3.2h6.4Z" transform="translate(-715.5 -953.9)"/><rect class="a" width="1.6" height="1.6" transform="translate(0 40)"/><path class="a" d="M747.5,996.3h-24c-1.765,0-6.4,0-6.4-4.8l-1.6,1.6a6.4,6.4,0,0,0,6.4,6.4h22.4a3.2,3.2,0,0,0,3.2-3.2Z" transform="translate(-715.5 -951.5)"/></g><g transform="translate(6.4 56)"><g transform="translate(139.2 4.8)"><path class="a" d="M780.5,1018.1v.8h-.8a3.2,3.2,0,0,1-3.2-3.2v-9.6l1.6-1.6v10.4c0,.882,0,3.2,2.4,3.2Z" transform="translate(-776.5 -1004.5)"/><path class="a" d="M779,1018.1v.8h.8a3.2,3.2,0,0,0,3.2-3.2v-11.2l-1.6,1.6v8.8c0,.882,0,3.2-2.4,3.2Z" transform="translate(-775 -1004.5)"/><path class="a" d="M784.5,1011.5h-.8c0,6.328-5.4,6.4-5.6,6.4h0l-1.6,1.6h1.6C778.164,1019.5,784.5,1019.409,784.5,1011.5Z" transform="translate(-776.5 -1000.3)"/></g><path class="d" d="M695.1,1019.1v1.6h-2.4a3.2,3.2,0,0,1-3.2-3.2v-13.6l2.4-2.4v15.2a2.4,2.4,0,0,0,2.4,2.4Z" transform="translate(-689.5 -1001.5)"/><g transform="translate(30.8)"><path class="d" d="M711.95,1004.7h-3.2v-1.92a1.28,1.28,0,0,1,1.28-1.28h1.92Z" transform="translate(-708.75 -1001.5)"/><path class="d" d="M714.85,1017.3v1.6h-2.4a3.2,3.2,0,0,1-3.2-3.2v-8.8l2.4-2.4v10.4a2.4,2.4,0,0,0,2.4,2.4Z" transform="translate(-708.45 -999.7)"/></g><g transform="translate(13.6 4.8)"><path class="d" d="M703.6,1017.3v1.6h-2.4a3.2,3.2,0,0,1-3.2-3.2v-8.8l2.4-2.4v10.4a2.4,2.4,0,0,0,2.4,2.4Z" transform="translate(-698 -1004.5)"/><path class="d" d="M700.5,1006.1v-1.6h2.4a3.2,3.2,0,0,1,3.2,3.2v8.8l-2.4,2.4v-10.4a2.4,2.4,0,0,0-2.4-2.4Z" transform="translate(-696.5 -1004.5)"/><rect class="d" width="1.6" height="1.6" transform="translate(2.4)"/><rect class="d" width="1.6" height="1.6" transform="translate(5.6 12.8)"/></g><g transform="translate(44.4 4.8)"><path class="a" d="M719.75,1015.7v.8h.8a3.2,3.2,0,0,0,3.2-3.2v-3.2l-1.6-1.6v4c0,.882,0,3.2-2.4,3.2Z" transform="translate(-715.75 -1002.1)"/><path class="a" d="M725.25,1016.3v.8h-.8a3.2,3.2,0,0,1-3.2-3.2v-4.8l1.6-1.6v5.6c0,.882,0,3.2,2.4,3.2Z" transform="translate(-714.85 -1002.7)"/><path class="a" d="M719.75,1005.3v-.8h.8a3.2,3.2,0,0,1,3.2,3.2v2.4l-1.6,1.6v-3.2c0-.882,0-3.2-2.4-3.2Z" transform="translate(-715.75 -1004.5)"/><path class="a" d="M718.85,1012.8c0,.882,0,3.2,2.4,3.2h.8v.8h-1.6a3.2,3.2,0,0,1-3.2-3.2V1008h5.6v.8l-3.314.474a.8.8,0,0,0-.686.792Z" transform="translate(-717.25 -1002.4)"/><path class="a" d="M717.25,1005.3h4v-.8h-3.2Z" transform="translate(-717.25 -1004.5)"/></g><g transform="translate(75.6 4.8)"><path class="a" d="M739.25,1015.7v.8h.8a3.2,3.2,0,0,0,3.2-3.2v-3.2l-1.6-1.6v4c0,.882,0,3.2-2.4,3.2Z" transform="translate(-735.25 -1002.1)"/><path class="a" d="M744.75,1016.3v.8h-.8a3.2,3.2,0,0,1-3.2-3.2v-4.8l1.6-1.6v5.6c0,.882,0,3.2,2.4,3.2Z" transform="translate(-734.35 -1002.7)"/><path class="a" d="M739.25,1005.3v-.8h.8a3.2,3.2,0,0,1,3.2,3.2v2.4l-1.6,1.6v-3.2c0-.882,0-3.2-2.4-3.2Z" transform="translate(-735.25 -1004.5)"/><path class="a" d="M738.35,1012.8c0,.882,0,3.2,2.4,3.2h.8v.8h-1.6a3.2,3.2,0,0,1-3.2-3.2V1008h5.6v.8l-3.313.474a.8.8,0,0,0-.686.792Z" transform="translate(-736.75 -1002.4)"/><path class="a" d="M736.75,1005.3h4v-.8h-3.2Z" transform="translate(-736.75 -1004.5)"/></g><g transform="translate(61.2 4.8)"><path class="a" d="M731.75,1016.6v.8h-.8a3.2,3.2,0,0,1-3.2-3.2V1007l1.6,2.4v4c0,.882,0,3.2,2.4,3.2Z" transform="translate(-727.75 -1003)"/><path class="a" d="M731.75,1005.3v-.8h-.8a3.2,3.2,0,0,0-3.2,3.2v2.4l1.6,1.6v-3.2c0-.882,0-3.2,2.4-3.2Z" transform="translate(-727.75 -1004.5)"/><path class="a" d="M733.45,1005.3h-3.2v-.8h4Z" transform="translate(-726.25 -1004.5)"/><path class="a" d="M733.45,1013.8h-3.2v-.8h4Z" transform="translate(-726.25 -999.4)"/></g><g transform="translate(119.2 4.8)"><path class="a" d="M770.5,1005.3v-.8h.8a3.2,3.2,0,0,1,3.2,3.2v11.2h-1.6v-10.4c0-.882,0-3.2-2.4-3.2Z" transform="translate(-760.1 -1004.5)"/><path class="a" d="M766.5,1005.3v-.8h.8a3.2,3.2,0,0,1,3.2,3.2v11.2h-1.6v-10.4c0-.882,0-3.2-2.4-3.2Z" transform="translate(-762.5 -1004.5)"/><path class="a" d="M768,1005.3v-.8h-.8a3.2,3.2,0,0,0-3.2,3.2v11.2h1.6v-10.4c0-.882,0-3.2,2.4-3.2Z" transform="translate(-764 -1004.5)"/><path class="a" d="M772,1005.3v-.8h-.8a3.2,3.2,0,0,0-3.2,3.2v11.2h1.6v-10.4c0-.882,0-3.2,2.4-3.2Z" transform="translate(-761.6 -1004.5)"/></g><g transform="translate(106.8 4.8)"><path class="a" d="M760.25,1005.3v-.8h-.8a3.2,3.2,0,0,0-3.2,3.2v6.4l1.6-1.6v-4c0-.882,0-3.2,2.4-3.2Z" transform="translate(-756.25 -1004.5)"/><path class="a" d="M760.25,1015.4v.8h-.8a3.2,3.2,0,0,1-3.2-3.2v-2.4l1.6-1.6v3.2c0,.882,0,3.2,2.4,3.2Z" transform="translate(-756.25 -1001.8)"/><path class="a" d="M761.75,1008.5c0-.882,0-3.2-2.4-3.2h-.8v-.8h1.6a3.2,3.2,0,0,1,3.2,3.2v5.6h-5.6v-.8l3.313-.474a.8.8,0,0,0,.686-.792Z" transform="translate(-755.35 -1004.5)"/><path class="a" d="M762.75,1013h-4v.8h3.2Z" transform="translate(-754.75 -999.4)"/><path class="a" d="M760.25,1005.3v-.8h-.8a3.2,3.2,0,0,0-3.2,3.2v6.4l1.6-1.6v-4c0-.882,0-3.2,2.4-3.2Z" transform="translate(-756.25 -1004.5)"/><path class="a" d="M760.25,1015.4v.8h-.8a3.2,3.2,0,0,1-3.2-3.2v-2.4l1.6-1.6v3.2c0,.882,0,3.2,2.4,3.2Z" transform="translate(-756.25 -1001.8)"/><path class="a" d="M761.75,1008.5c0-.882,0-3.2-2.4-3.2h-.8v-.8h1.6a3.2,3.2,0,0,1,3.2,3.2v5.6h-5.6v-.8l3.313-.474a.8.8,0,0,0,.686-.792Z" transform="translate(-755.35 -1004.5)"/><path class="a" d="M762.75,1013h-4v.8h3.2Z" transform="translate(-754.75 -999.4)"/></g><g transform="translate(92.4)"><g transform="translate(0 4.8)"><path class="a" d="M751.25,1018.1v.8h-.8a3.2,3.2,0,0,1-3.2-3.2v-9.6l1.6-1.6v10.4c0,.882,0,3.2,2.4,3.2Z" transform="translate(-747.25 -1004.5)"/><path class="a" d="M749.75,1005.3v-.8h.8a3.2,3.2,0,0,1,3.2,3.2v9.6l-1.6,1.6v-10.4c0-.882,0-3.2-2.4-3.2Z" transform="translate(-745.75 -1004.5)"/><rect class="a" width="2.4" height="0.8" transform="translate(1.6)"/><rect class="a" width="2.4" height="0.8" transform="translate(4 13.6)"/></g><path class="a" d="M752.85,1008.7v-7.2l-1.6,1.6v5.6Z" transform="translate(-744.85 -1001.5)"/></g></g></g></g></svg>