<svg xmlns="http://www.w3.org/2000/svg" width="200.89" height="81" viewBox="0 0 200.89 81"><defs><style>.a{fill:#82098b;}.b{fill:none;}.c{fill:#fff;}.d{fill:#00abc4;}.e{fill:#003e92;}</style></defs><g transform="translate(-846.759 -1711)"><path class="a" d="M32.018,0H80V80H0V32.018A32.018,32.018,0,0,1,32.018,0Z" transform="translate(1047.65 1711) rotate(90)"/><g transform="translate(967.65 1711)"><circle class="b" cx="40" cy="40" r="40"/><g transform="translate(16.405 16.833)"><path class="c" d="M992.544,318.44a1,1,0,0,1-.461-.961,159.207,159.207,0,0,1,.933-16.046,69.4,69.4,0,0,1,2.978-14.457,20.65,20.65,0,0,1,2.248-4.91,22.961,22.961,0,0,1,5.693-5.652c.086-.063.168-.131.259-.185a2.4,2.4,0,0,0,1.005-1.161,3.721,3.721,0,0,1,1.049-1.279c.784-.645,1.63-1.216,2.468-1.792a1.259,1.259,0,0,1,.672-.21q6.038-.019,12.075,0a1.263,1.263,0,0,1,.671.213c.826.567,1.63,1.165,2.443,1.751a3.466,3.466,0,0,1,1.255,1.69,1.143,1.143,0,0,0,.418.5,26.62,26.62,0,0,1,5.664,5.174,18.511,18.511,0,0,1,2.733,5.317,54.739,54.739,0,0,1,2.247,8.665.711.711,0,0,1-.547.9c-.375.068-.682-.184-.795-.635-.632-2.544-1.193-5.109-1.931-7.622a39.217,39.217,0,0,0-1.714-4.154,4.066,4.066,0,0,0-.262-.44c-.071.173-.131.287-.166.409q-1.68,5.762-3.36,11.526a1.183,1.183,0,0,0,.087.906,36.738,36.738,0,0,1,2.7,8.709,85.052,85.052,0,0,1,1.467,12.1c0,.073.015.146.026.246h4.966c0-.194,0-.386,0-.577-.092-4.708-.321-9.409-.819-14.093-.138-1.3-.33-2.589-.5-3.883-.015-.121-.034-.241-.039-.362a.664.664,0,0,1,.591-.776.672.672,0,0,1,.762.618q.207,1.419.378,2.843c.545,4.572.835,9.162.942,13.764a4.547,4.547,0,0,0,.065.491v3.372h-7.291a1.192,1.192,0,0,1-.433-.989,83.685,83.685,0,0,0-1.119-10.583,45.615,45.615,0,0,0-2.184-8.532c-.054-.144-.122-.281-.2-.469a16.378,16.378,0,0,0-.3,6.712c.586,4.179,1.489,8.294,2.453,12.4.183.782-.006,1.072-.8,1.186-.658.1-1.316.184-1.974.277h-2.643c-.177-.031-.354-.071-.533-.089a11.178,11.178,0,0,1-6.75-2.819c-.529-.494-1.024-1.024-1.563-1.566l-.412.456a11.067,11.067,0,0,1-6.008,3.618c-.8.166-1.609.268-2.415.4h-2.643c-.658-.093-1.317-.182-1.975-.278-.791-.115-.976-.4-.8-1.187a109.7,109.7,0,0,0,2.639-14.214,14.079,14.079,0,0,0-.513-4.834,27.967,27.967,0,0,0-1.161,3.488c-.534,2.287-.97,4.6-1.448,6.9-.1.491-.4.725-.814.652-.4-.071-.6-.414-.52-.906.19-1.121.362-2.247.585-3.362a36.775,36.775,0,0,1,2.7-8.709,1.186,1.186,0,0,0,.087-.906c-.929-3.218-1.845-6.441-2.775-9.659-.217-.748-.469-1.487-.734-2.323a5.6,5.6,0,0,0-.3.51c-.518,1.195-1.1,2.369-1.532,3.594a63.869,63.869,0,0,0-2.909,13.632,152.471,152.471,0,0,0-1.006,15.721c0,.161,0,.322,0,.488h4.956c.107-1.371.208-2.717.32-4.059.054-.65.122-1.3.2-1.947a.709.709,0,0,1,.743-.7.7.7,0,0,1,.617.8c0,.121-.015.243-.025.364-.157,1.982-.321,3.963-.464,5.946a1.236,1.236,0,0,1-.435.989Zm29.6-30.986h3.283c.772,0,.983.206.986.962q0,1.094,0,2.187c0,.733-.222.951-.952.952-1.959,0-3.918.01-5.877-.008a.972.972,0,0,0-.84.392c-1.516,1.78-3.061,3.535-4.585,5.307a1.911,1.911,0,0,0-.383.654,15.941,15.941,0,0,0,1.921,14.144,10.241,10.241,0,0,0,6.7,4.722,17.189,17.189,0,0,0,5.806.1c-.022-.148-.031-.268-.058-.384a119.545,119.545,0,0,1-2.292-11.832,15.042,15.042,0,0,1-.146-4.4,44.059,44.059,0,0,1,.892-4.642c1.25-4.512,2.589-9,3.906-13.495a.635.635,0,0,0-.142-.726c-.514-.516-.975-1.089-1.512-1.577-.87-.79-1.786-1.533-2.682-2.3l-.13.05C1026.151,281.395,1024.135,284.379,1022.147,287.454Zm-19.552,29.49c1.169.039,2.273.125,3.376.1a10.49,10.49,0,0,0,8.309-3.856.516.516,0,0,0,.036-.733,17.249,17.249,0,0,1-2.376-12.88,43.266,43.266,0,0,1,1.573-5.123.94.94,0,0,0-.2-1.043,61.727,61.727,0,0,1-6.3-8.636,14.524,14.524,0,0,1-2.033-4.983c-.117-.728-.166-1.465-.25-2.238-.093.059-.17.1-.239.152a25.358,25.358,0,0,0-4,3.647.719.719,0,0,0-.146.806c1.6,4.98,3.154,9.975,4.278,15.091a19.165,19.165,0,0,1,.474,6.5c-.427,3.467-1.106,6.888-1.853,10.3C1003.043,314.984,1002.828,315.91,1002.6,316.944Zm12.52-22.986.1.059c.422-.494.849-.983,1.265-1.481a63.273,63.273,0,0,0,6.414-8.882,11.247,11.247,0,0,0,1.708-7.165,2.338,2.338,0,0,0-.519-1.309,20.665,20.665,0,0,0-2.109-1.634c-.23.683-.435,1.283-.636,1.883-.429,1.278-.855,2.558-1.288,3.835-.172.506-.512.725-.909.6-.413-.127-.558-.518-.384-1.052.16-.49.326-.978.488-1.467.136-.41.271-.822.417-1.264h-8.5l4.208,12.514c.628-1.582,1.156-3.146,1.682-4.71.252-.747.492-1.5.754-2.241a.682.682,0,0,1,.9-.472.7.7,0,0,1,.4.9c-.02.073-.044.146-.068.217q-1.472,4.373-2.945,8.746Q1015.6,292.5,1015.116,293.958Zm-6.267-20.388a20.927,20.927,0,0,0-2.021,1.525,2.188,2.188,0,0,0-.583,1.234,10.567,10.567,0,0,0,1.168,6.339,51.451,51.451,0,0,0,5.615,8.268c.367.459.744.91,1.174,1.433.19-.747.575-1.316.305-2.1-1.853-5.4-3.658-10.822-5.479-16.236C1008.982,273.893,1008.922,273.758,1008.849,273.57Zm1.336-.4c.16.476.3.922.466,1.355a.39.39,0,0,0,.307.169q4.46.014,8.921,0a.394.394,0,0,0,.308-.168c.171-.432.307-.879.467-1.356Zm14.836,17v-1.342c-1.25,0-2.475,0-3.7,0a.333.333,0,0,0-.233.106c-.3.387-.593.784-.928,1.232Z" transform="translate(-992.083 -271.778)"/><path class="c" d="M1023.212,311.942a1.372,1.372,0,0,1,2.742.1,1.372,1.372,0,1,1-2.742-.1Z" transform="translate(-1000.516 -282.303)"/></g></g><g transform="translate(846.759 1712)"><g transform="translate(0)"><path class="a" d="M1881.778,1360l-1.778,1.778v8.889a7.111,7.111,0,0,0,7.111,7.111h1.778v-3.555h0c-1.961,0-7.111,0-7.111-5.333Z" transform="translate(-1880 -1324.444)"/><path class="d" d="M1912.778,1360H1911c0,14.061-12.009,14.222-12.444,14.222h0l-3.555,3.555h3.555C1898.7,1377.778,1912.778,1377.575,1912.778,1360Z" transform="translate(-1868.334 -1324.444)"/><path class="a" d="M1912.778,1360H1911c0,14.061-12.009,14.222-12.444,14.222h0l-3.555,3.555h3.555C1898.7,1377.778,1912.778,1377.575,1912.778,1360Z" transform="translate(-1868.334 -1324.444)"/><rect class="a" width="1.778" height="12.444" transform="translate(42.667 23.111)"/><path class="a" d="M1898.556,1360.889c0-1.961,0-7.111,5.333-7.111h8.889V1352h-10.667a7.111,7.111,0,0,0-7.111,7.111v10.667h12.444V1368l-7.362-1.052a1.777,1.777,0,0,1-1.527-1.76Z" transform="translate(-1868.334 -1330.667)"/><g transform="translate(72.889)"><path class="e" d="M1928.111,1343h-.711c0,5.625-4.8,5.689-4.978,5.689h0l-1.422,1.422h1.422C1922.479,1350.111,1928.111,1350.029,1928.111,1343Z" transform="translate(-1921 -1337.667)"/><rect class="e" width="0.711" height="4.978" transform="translate(6.4 0.711)"/><path class="e" d="M1922.423,1343.556c0-.784,0-2.844,2.133-2.844h3.556V1340h-4.267a2.843,2.843,0,0,0-2.844,2.844v4.267h4.978v-.711l-2.946-.421a.71.71,0,0,1-.609-.7Z" transform="translate(-1921 -1340)"/></g><path class="a" d="M1889.556,1360.889c0-1.961,0-7.111,5.333-7.111h3.556l1.778-1.778h-7.111a7.111,7.111,0,0,0-7.111,7.111v10.667h12.444V1368l-7.362-1.052a1.777,1.777,0,0,1-1.527-1.76Z" transform="translate(-1875.333 -1330.667)"/><path class="a" d="M1913.667,1367l-8.889,7.111H1903l7.111-7.111Z" transform="translate(-1862.111 -1319)"/><path class="e" d="M1929.778,1364.445l-1.778,5.333h-16v-10.667a7.111,7.111,0,0,1,7.111-7.111h10.667Z" transform="translate(-1855.111 -1330.667)"/><path class="e" d="M1929.778,1360h-3.556c0,12.445-8.453,12.445-8.889,12.445h0l-5.333,5.333h3.556C1915.7,1377.778,1929.778,1377.575,1929.778,1360Z" transform="translate(-1855.111 -1324.444)"/><path class="e" d="M1923,1377.333l3.556,3.556h1.778a7.111,7.111,0,0,0,7.111-7.111V1340l-5.333,5.333V1372a5.333,5.333,0,0,1-5.333,5.333Z" transform="translate(-1846.556 -1340)"/><path class="e" d="M1907,1378.556c2.372,0,5.333-3.184,5.333-7.111V1343l-5.333,5.333v30.222Z" transform="translate(-1859 -1337.667)"/><path class="e" d="M1928.111,1366.889h-1.778a5.333,5.333,0,0,1-5.333-5.333v-1.778l1.778-1.778v1.778a3.555,3.555,0,0,0,3.556,3.556h1.778Z" transform="translate(-1848.112 -1326)"/><path class="a" d="M1897.34,1362c-1.849,10.5-11.945,10.667-12.34,10.667v3.556c.132,0,12.461-.185,14.222-14.222Z" transform="translate(-1876.111 -1322.889)"/><path class="e" d="M1903,1345.334c0-2.372,3.184-5.333,7.111-5.333h14.222l-5.333,5.333Z" transform="translate(-1862.111 -1340)"/></g><g transform="translate(0 58.667)"><g transform="translate(43.52 4.267)"><path class="a" d="M1908.036,1387.489v.711h-.711a2.844,2.844,0,0,1-2.844-2.844v-8.534l1.422-1.422v9.244c0,.784,0,2.844,2.133,2.844Z" transform="translate(-1904.48 -1375.4)"/><g transform="translate(3.556)"><path class="a" d="M1911.236,1386.867v.711h-.711a2.843,2.843,0,0,1-2.844-2.844v-7.111l1.422-1.422v7.822c0,.784,0,2.844,2.134,2.844Z" transform="translate(-1905.547 -1374.778)"/><path class="a" d="M1909.68,1387.489v.711h.711a2.844,2.844,0,0,0,2.845-2.844V1375.4l-1.422,1.422v7.822c0,.784,0,2.844-2.133,2.844Z" transform="translate(-1903.991 -1375.4)"/><path class="a" d="M1906.48,1386.867v.711h.711a2.843,2.843,0,0,0,2.844-2.844V1376.2l-1.422,1.422v6.4c0,.784,0,2.844-2.134,2.844Z" transform="translate(-1906.48 -1374.778)"/></g></g><g transform="translate(81.778 4.267)"><path class="a" d="M1929.556,1387.489v.711h-.711a2.844,2.844,0,0,1-2.844-2.844v-8.534l1.422-1.422v9.244c0,.784,0,2.844,2.133,2.844Z" transform="translate(-1926 -1375.4)"/><path class="a" d="M1928,1387.489v.711h.711a2.844,2.844,0,0,0,2.844-2.844V1375.4l-1.422,1.422v7.822c0,.784,0,2.844-2.133,2.844Z" transform="translate(-1924.445 -1375.4)"/><path class="a" d="M1933.111,1381h-.711c0,5.625-4.8,5.689-4.978,5.689h0l-1.422,1.422h1.422C1927.479,1388.111,1933.111,1388.029,1933.111,1381Z" transform="translate(-1926 -1371.045)"/></g><path class="e" d="M1884.978,1388.645v1.422h-2.134a2.843,2.843,0,0,1-2.844-2.844v-12.089l2.133-2.133v13.511a2.133,2.133,0,0,0,2.133,2.134Z" transform="translate(-1880 -1373)"/><g transform="translate(29.724)"><path class="e" d="M1899.565,1375.844h-2.844v-1.707a1.139,1.139,0,0,1,1.138-1.138h1.707Z" transform="translate(-1896.72 -1373)"/><path class="e" d="M1902.1,1386.778v1.422h-2.134a2.844,2.844,0,0,1-2.844-2.844v-7.822l2.133-2.134v9.244a2.133,2.133,0,0,0,2.133,2.134Z" transform="translate(-1896.409 -1371.133)"/></g><g transform="translate(13.084 4.267)"><path class="e" d="M1892.338,1386.778v1.422H1890.2a2.844,2.844,0,0,1-2.844-2.844v-7.822l2.133-2.134v9.244a2.133,2.133,0,0,0,2.133,2.134Z" transform="translate(-1887.36 -1375.4)"/><path class="e" d="M1889.36,1376.822V1375.4h2.134a2.844,2.844,0,0,1,2.844,2.844v7.822l-2.134,2.134v-9.244a2.133,2.133,0,0,0-2.133-2.134Z" transform="translate(-1885.804 -1375.4)"/><rect class="e" width="1.422" height="1.422" transform="translate(2.133)"/><rect class="e" width="1.422" height="1.422" transform="translate(4.978 11.378)"/></g><g transform="translate(64.427 4.267)"><path class="a" d="M1918.24,1385v.711h.711a2.844,2.844,0,0,0,2.844-2.844v-2.844l-1.422-1.422v3.556c0,.784,0,2.844-2.133,2.844Z" transform="translate(-1914.685 -1372.911)"/><path class="a" d="M1923,1385.622v.711h-.711a2.844,2.844,0,0,1-2.844-2.844v-4.267l1.422-1.422v4.978c0,.784,0,2.844,2.133,2.844Z" transform="translate(-1913.751 -1373.533)"/><path class="a" d="M1918.24,1376.111v-.711h.711a2.844,2.844,0,0,1,2.844,2.844v2.134l-1.422,1.422v-2.844c0-.784,0-2.844-2.133-2.844Z" transform="translate(-1914.685 -1375.4)"/><path class="a" d="M1917.662,1382.467c0,.784,0,2.844,2.133,2.844h.711v.711h-1.422a2.844,2.844,0,0,1-2.844-2.844V1378.2h4.978v.711l-2.946.421a.711.711,0,0,0-.61.7Z" transform="translate(-1916.24 -1373.223)"/><path class="a" d="M1916.24,1376.111h3.556v-.711h-2.844Z" transform="translate(-1916.24 -1375.4)"/></g></g></g></g></svg>