<svg xmlns="http://www.w3.org/2000/svg" width="200.89" height="80" viewBox="0 0 200.89 80"><defs><style>.a{fill:#0c9502;}.b{fill:none;}.c{fill:#fff;}.d{fill:#00abc4;}.e{fill:#003e92;}</style></defs><g transform="translate(-1538.66 -1711)"><path class="a" d="M32.018,0H80V80H0V32.018A32.018,32.018,0,0,1,32.018,0Z" transform="translate(1739.55 1711) rotate(90)"/><g transform="translate(1659.55 1711)"><circle class="b" cx="40" cy="40" r="40"/><g transform="translate(15.834 16.709)"><path class="c" d="M640.2,347.354a1.457,1.457,0,0,1-.823-1.563c.039-.543.008-1.091.008-1.637,0-1.251.355-1.707,1.615-2.029,0-.332-.006-.678,0-1.023a1.579,1.579,0,0,1,1.668-1.649c1.622-.009,3.245,0,4.868,0,.1,0,.211-.01.351-.017V337.08h-1.81a2.916,2.916,0,0,1-1.287-5.615.549.549,0,0,0,.232-.359,5.6,5.6,0,0,0,.013-.681,1.323,1.323,0,0,0-.394-1.173,1.418,1.418,0,0,1-.347-.944c-.032-1.894-.043-3.791.007-5.685a3.535,3.535,0,0,1,.469-1.134,2.243,2.243,0,0,0,.251-.619c.04-.435.013-.876.013-1.312a2.953,2.953,0,0,1-2.052-2.568,2.876,2.876,0,0,1,2.634-3.122c.751-.043,1.508-.008,2.307-.008v-.609q0-5.527,0-11.054c0-1.031.4-1.426,1.428-1.426H677.74c1.037,0,1.42.387,1.421,1.432q0,2.479,0,4.958c0,.06,0,.121,0,.182-.013.533-.265.837-.69.83s-.67-.315-.673-.852c0-1,0-2,0-3v-2.156H649.317v11.693c.823,0,1.639-.027,2.453.006a2.893,2.893,0,0,1,1,5.535.49.49,0,0,0-.357.574,3.3,3.3,0,0,1,0,.545,1.507,1.507,0,0,0,.378,1.135,5.54,5.54,0,0,1,.584,1.578c.775,0,1.7.006,2.615-.01.085,0,.181-.134.249-.223a1.157,1.157,0,0,1,.974-.492c.652.005,1.308-.045,1.954.022a1.7,1.7,0,0,1,.89.442.754.754,0,0,0,.562.269c1.35-.011,2.7,0,4.049-.016a.8.8,0,0,0,.52-.237,1.3,1.3,0,0,1,.987-.479c1.258,0,2.518-.005,3.776,0,.479,0,.754.25.765.655a.687.687,0,0,1-.772.7c-1.032.01-2.062,0-3.094,0h-.507v3.155a2.561,2.561,0,0,0,.307.036q6.779,0,13.558,0a1.593,1.593,0,0,0,.493-3.128,2.64,2.64,0,0,0-.675-.06q-3.207-.006-6.415,0c-.121,0-.243.007-.363,0a.682.682,0,0,1-.688-.7.65.65,0,0,1,.713-.659c1.077-.011,2.153,0,3.23-.005H677.8v-.555q0-5.436,0-10.872a2.205,2.205,0,0,1,.042-.541.666.666,0,0,1,1.313.1c.014.151.008.3.008.455q0,5.413,0,10.826v.588c.426,0,.8-.008,1.176,0a2.958,2.958,0,0,1,.026,5.914c-.378.014-.756,0-1.2,0v.556c0,5.641-.008,11.282.01,16.922a1.4,1.4,0,0,1-.845,1.452Zm17.872-1.392h19.7V328.427H677.2q-5.413,0-10.824,0a1.412,1.412,0,0,1-1.2-.516.651.651,0,0,0-.445-.2q-2.092-.023-4.184,0a.65.65,0,0,0-.429.222,1.257,1.257,0,0,1-1.023.494q-.909-.006-1.819,0a1.2,1.2,0,0,1-1.051-.523c-.062-.086-.175-.191-.266-.192-.9-.014-1.811-.009-2.583-.009a6.425,6.425,0,0,1-.6,1.6,1.457,1.457,0,0,0-.359,1.045,3.038,3.038,0,0,1,0,.591c-.037.317.086.468.387.6a2.9,2.9,0,0,1-1.189,5.536c-.652.01-1.3,0-1.956,0a3.276,3.276,0,0,0-.336.033v2.335h.516c1.637,0,3.274,0,4.912,0a1.618,1.618,0,0,1,1.734,1.733c0,.316,0,.633,0,.938,1.278.347,1.593.765,1.593,2.077Zm-17.32-.006H656.7c0-.638-.021-1.245.007-1.849.02-.427-.112-.581-.563-.577-2.456.02-4.913.01-7.369.009a3.584,3.584,0,0,1-.454-.009.628.628,0,0,1-.6-.628.641.641,0,0,1,.563-.712,1.892,1.892,0,0,1,.407-.015h6.419v-.7c0-.657,0-.658-.654-.658H642.993a.992.992,0,0,0-.36.013c-.105.044-.247.157-.254.248-.03.354-.012.712-.012,1.1h.647c.728,0,1.456-.012,2.183.007a.677.677,0,1,1-.006,1.354c-.121.008-.242,0-.364,0h-3.593c-.232,0-.482-.021-.484.32C640.746,344.553,640.749,345.247,640.749,345.957Zm8.007-23.539c-.88,0-1.759.013-2.638-.006-.346-.008-.487.089-.483.459q.023,2.592,0,5.185c0,.363.132.47.482.467q2.615-.02,5.232,0c.343,0,.493-.1.491-.466q-.017-2.593,0-5.186c0-.369-.147-.466-.491-.459C650.485,322.429,649.62,322.418,648.755,322.418Zm-.047,13.3c.939,0,1.878.006,2.817,0a1.544,1.544,0,1,0,.018-3.087q-2.816-.019-5.633,0a1.544,1.544,0,1,0,.028,3.087C646.861,335.721,647.785,335.715,648.709,335.715Zm.02-20.508H646a1.552,1.552,0,1,0-.023,3.1q2.747.022,5.5,0a1.55,1.55,0,1,0-.023-3.092C650.546,315.2,649.637,315.208,648.729,315.207Zm16.187,11.108v-1.695h-4.584v1.695ZM646.426,319.7v1.322h4.583V319.7Zm.008,10.208v1.315h4.59v-1.315Zm12.478-2.863v-3.15h-1.487v3.15Zm-2.893-2.416H653.23v1.681h2.789Z" transform="translate(-639.368 -300.771)"/><path class="c" d="M666.988,305.869a7.063,7.063,0,1,1-7.085,6.977A7.045,7.045,0,0,1,666.988,305.869Zm-.009,1.364a5.7,5.7,0,1,0,5.68,5.709A5.694,5.694,0,0,0,666.979,307.233Z" transform="translate(-642.79 -301.621)"/><path class="c" d="M671.3,345.8c-2.014,0-4.029.007-6.043-.009a1.066,1.066,0,0,1-.691-.233.751.751,0,0,1-.14-.652c.064-.188.313-.337.512-.447a1.013,1.013,0,0,1,.448-.024h12.042c.528.009.845.262.847.68s-.312.682-.838.683Q674.367,345.808,671.3,345.8Z" transform="translate(-643.54 -308.047)"/><path class="c" d="M671.314,337.841c-2.045,0-4.089,0-6.134,0a.721.721,0,0,1-.787-.477.671.671,0,0,1,.553-.878,2.464,2.464,0,0,1,.408-.013h11.9a2.217,2.217,0,0,1,.408.013.643.643,0,0,1,.588.691.633.633,0,0,1-.626.653,5.812,5.812,0,0,1-.59.007Z" transform="translate(-643.532 -306.721)"/><path class="c" d="M668.652,348.436c1.167,0,2.333-.008,3.5,0a.654.654,0,0,1,.727.645c.014.4-.253.669-.72.708-.135.011-.272.006-.408.006h-6.135c-.137,0-.272,0-.409,0-.553-.018-.835-.249-.838-.682s.275-.677.83-.679c1.151-.006,2.3,0,3.453,0Z" transform="translate(-643.534 -308.715)"/><path class="c" d="M675.571,341.828c-1,0-2,.007-3-.006a.944.944,0,0,1-.6-.137.881.881,0,0,1-.267-.653c.035-.2.277-.395.473-.525.119-.08.323-.043.489-.043q2.91,0,5.819,0c.122,0,.243,0,.363.013a.669.669,0,0,1-.008,1.337c-.544.028-1.091.013-1.636.015S676.117,341.828,675.571,341.828Z" transform="translate(-644.757 -307.385)"/><path class="c" d="M666.843,341.828c-.56,0-1.12.009-1.68,0-.516-.01-.791-.253-.794-.674s.263-.678.781-.682q1.749-.015,3.5,0c.5.005.784.274.775.692-.009.4-.284.653-.762.663C668.054,341.838,667.449,341.828,666.843,341.828Z" transform="translate(-643.534 -307.386)"/><path class="c" d="M677.829,348.436c.515,0,1.031-.01,1.545,0a.681.681,0,0,1,.743.636.674.674,0,0,1-.715.713q-1.613.028-3.226,0a.673.673,0,1,1,.017-1.345C676.738,348.425,677.284,348.437,677.829,348.436Z" transform="translate(-645.387 -308.715)"/><path class="c" d="M667.406,314.806c.849-.851,1.649-1.652,2.449-2.452.117-.117.23-.243.357-.348a.674.674,0,0,1,.953.953c-.283.315-.592.607-.891.908-.737.739-1.474,1.48-2.217,2.215-.486.482-.786.479-1.27,0q-.92-.913-1.831-1.832c-.38-.384-.416-.77-.112-1.073s.7-.263,1.075.111C666.411,313.774,666.89,314.276,667.406,314.806Z" transform="translate(-643.58 -302.612)"/></g></g><g transform="translate(1538.66 1711)"><path class="a" d="M1881.778,1360l-1.778,1.778v8.889a7.111,7.111,0,0,0,7.111,7.111h1.778v-3.555h0c-1.961,0-7.111,0-7.111-5.333Z" transform="translate(-1880 -1324.444)"/><path class="d" d="M1912.778,1360H1911c0,14.061-12.009,14.222-12.444,14.222h0l-3.555,3.555h3.555C1898.7,1377.778,1912.778,1377.575,1912.778,1360Z" transform="translate(-1868.334 -1324.444)"/><path class="a" d="M1912.778,1360H1911c0,14.061-12.009,14.222-12.444,14.222h0l-3.555,3.555h3.555C1898.7,1377.778,1912.778,1377.575,1912.778,1360Z" transform="translate(-1868.334 -1324.444)"/><rect class="a" width="1.778" height="12.444" transform="translate(42.667 23.111)"/><path class="a" d="M1898.556,1360.889c0-1.961,0-7.111,5.333-7.111h8.889V1352h-10.667a7.111,7.111,0,0,0-7.111,7.111v10.667h12.444V1368l-7.362-1.052a1.777,1.777,0,0,1-1.527-1.76Z" transform="translate(-1868.334 -1330.667)"/><g transform="translate(72.889)"><path class="e" d="M1928.111,1343h-.711c0,5.625-4.8,5.689-4.978,5.689h0l-1.422,1.422h1.422C1922.479,1350.111,1928.111,1350.029,1928.111,1343Z" transform="translate(-1921 -1337.667)"/><rect class="e" width="0.711" height="4.978" transform="translate(6.4 0.711)"/><path class="e" d="M1922.423,1343.556c0-.784,0-2.844,2.133-2.844h3.556V1340h-4.267a2.843,2.843,0,0,0-2.844,2.844v4.267h4.978v-.711l-2.946-.421a.71.71,0,0,1-.609-.7Z" transform="translate(-1921 -1340)"/></g><path class="a" d="M1889.556,1360.889c0-1.961,0-7.111,5.333-7.111h3.556l1.778-1.778h-7.111a7.111,7.111,0,0,0-7.111,7.111v10.667h12.444V1368l-7.362-1.052a1.777,1.777,0,0,1-1.527-1.76Z" transform="translate(-1875.333 -1330.667)"/><path class="a" d="M1913.667,1367l-8.889,7.111H1903l7.111-7.111Z" transform="translate(-1862.111 -1319)"/><path class="e" d="M1929.778,1364.445l-1.778,5.333h-16v-10.667a7.111,7.111,0,0,1,7.111-7.111h10.667Z" transform="translate(-1855.111 -1330.667)"/><path class="e" d="M1929.778,1360h-3.556c0,12.445-8.453,12.445-8.889,12.445h0l-5.333,5.333h3.556C1915.7,1377.778,1929.778,1377.575,1929.778,1360Z" transform="translate(-1855.111 -1324.444)"/><path class="e" d="M1923,1377.333l3.556,3.556h1.778a7.111,7.111,0,0,0,7.111-7.111V1340l-5.333,5.333V1372a5.333,5.333,0,0,1-5.333,5.333Z" transform="translate(-1846.556 -1340)"/><path class="e" d="M1907,1378.556c2.372,0,5.333-3.184,5.333-7.111V1343l-5.333,5.333v30.222Z" transform="translate(-1859 -1337.667)"/><path class="e" d="M1928.111,1366.889h-1.778a5.333,5.333,0,0,1-5.333-5.333v-1.778l1.778-1.778v1.778a3.555,3.555,0,0,0,3.556,3.556h1.778Z" transform="translate(-1848.112 -1326)"/><path class="a" d="M1897.34,1362c-1.849,10.5-11.945,10.667-12.34,10.667v3.556c.132,0,12.461-.185,14.222-14.222Z" transform="translate(-1876.111 -1322.889)"/><path class="e" d="M1903,1345.334c0-2.372,3.184-5.333,7.111-5.333h14.222l-5.333,5.333Z" transform="translate(-1862.111 -1340)"/><g transform="translate(0 58.667)"><g transform="translate(43.52 4.267)"><path class="a" d="M1908.036,1387.489v.711h-.711a2.844,2.844,0,0,1-2.844-2.844v-8.534l1.422-1.422v9.244c0,.784,0,2.844,2.133,2.844Z" transform="translate(-1904.48 -1375.4)"/><g transform="translate(3.556)"><path class="a" d="M1911.236,1386.867v.711h-.711a2.843,2.843,0,0,1-2.844-2.844v-7.111l1.422-1.422v7.822c0,.784,0,2.844,2.134,2.844Z" transform="translate(-1905.547 -1374.778)"/><path class="a" d="M1909.68,1387.489v.711h.711a2.844,2.844,0,0,0,2.845-2.844V1375.4l-1.422,1.422v7.822c0,.784,0,2.844-2.133,2.844Z" transform="translate(-1903.991 -1375.4)"/><path class="a" d="M1906.48,1386.867v.711h.711a2.843,2.843,0,0,0,2.844-2.844V1376.2l-1.422,1.422v6.4c0,.784,0,2.844-2.134,2.844Z" transform="translate(-1906.48 -1374.778)"/></g></g><g transform="translate(81.778 4.267)"><path class="a" d="M1929.556,1387.489v.711h-.711a2.844,2.844,0,0,1-2.844-2.844v-8.534l1.422-1.422v9.244c0,.784,0,2.844,2.133,2.844Z" transform="translate(-1926 -1375.4)"/><path class="a" d="M1928,1387.489v.711h.711a2.844,2.844,0,0,0,2.844-2.844V1375.4l-1.422,1.422v7.822c0,.784,0,2.844-2.133,2.844Z" transform="translate(-1924.445 -1375.4)"/><path class="a" d="M1933.111,1381h-.711c0,5.625-4.8,5.689-4.978,5.689h0l-1.422,1.422h1.422C1927.479,1388.111,1933.111,1388.029,1933.111,1381Z" transform="translate(-1926 -1371.045)"/></g><path class="e" d="M1884.978,1388.645v1.422h-2.134a2.843,2.843,0,0,1-2.844-2.844v-12.089l2.133-2.133v13.511a2.133,2.133,0,0,0,2.133,2.134Z" transform="translate(-1880 -1373)"/><g transform="translate(29.724)"><path class="e" d="M1899.565,1375.844h-2.844v-1.707a1.139,1.139,0,0,1,1.138-1.138h1.707Z" transform="translate(-1896.72 -1373)"/><path class="e" d="M1902.1,1386.778v1.422h-2.134a2.844,2.844,0,0,1-2.844-2.844v-7.822l2.133-2.134v9.244a2.133,2.133,0,0,0,2.133,2.134Z" transform="translate(-1896.409 -1371.133)"/></g><g transform="translate(13.084 4.267)"><path class="e" d="M1892.338,1386.778v1.422H1890.2a2.844,2.844,0,0,1-2.844-2.844v-7.822l2.133-2.134v9.244a2.133,2.133,0,0,0,2.133,2.134Z" transform="translate(-1887.36 -1375.4)"/><path class="e" d="M1889.36,1376.822V1375.4h2.134a2.844,2.844,0,0,1,2.844,2.844v7.822l-2.134,2.134v-9.244a2.133,2.133,0,0,0-2.133-2.134Z" transform="translate(-1885.804 -1375.4)"/><rect class="e" width="1.422" height="1.422" transform="translate(2.133)"/><rect class="e" width="1.422" height="1.422" transform="translate(4.978 11.378)"/></g><g transform="translate(64.427 4.267)"><path class="a" d="M1918.24,1385v.711h.711a2.844,2.844,0,0,0,2.844-2.844v-2.844l-1.422-1.422v3.556c0,.784,0,2.844-2.133,2.844Z" transform="translate(-1914.685 -1372.911)"/><path class="a" d="M1923,1385.622v.711h-.711a2.844,2.844,0,0,1-2.844-2.844v-4.267l1.422-1.422v4.978c0,.784,0,2.844,2.133,2.844Z" transform="translate(-1913.751 -1373.533)"/><path class="a" d="M1918.24,1376.111v-.711h.711a2.844,2.844,0,0,1,2.844,2.844v2.134l-1.422,1.422v-2.844c0-.784,0-2.844-2.133-2.844Z" transform="translate(-1914.685 -1375.4)"/><path class="a" d="M1917.662,1382.467c0,.784,0,2.844,2.133,2.844h.711v.711h-1.422a2.844,2.844,0,0,1-2.844-2.844V1378.2h4.978v.711l-2.946.421a.711.711,0,0,0-.61.7Z" transform="translate(-1916.24 -1373.223)"/><path class="a" d="M1916.24,1376.111h3.556v-.711h-2.844Z" transform="translate(-1916.24 -1375.4)"/></g></g></g></g></svg>