<svg xmlns="http://www.w3.org/2000/svg" width="184" height="184" viewBox="0 0 184 184"><defs><style>.a{fill:#fff;}.b{fill:#164180;}.c{fill:#009ab6;}.d{fill:#c29f6a;}</style></defs><g transform="translate(-45.221 -15.457)"><circle class="a" cx="92" cy="92" r="92" transform="translate(45.221 15.457)"/><g transform="translate(87.132 64.524)"><g transform="translate(0 0)"><path class="b" d="M369,288.842a2.516,2.516,0,0,1,1.151,1.928q1.765,8.163,3.56,16.32c.048.22.129.433.162.544l7.822-7.817c-.219-.275-.558-.661-.85-1.079a1.532,1.532,0,0,1,.31-2.4,22.78,22.78,0,0,1,7.871-3.314,1.6,1.6,0,0,1,1.823,2.1,18.677,18.677,0,0,1-.966,2.966c-.544,1.323-1.127,2.638-1.8,3.9-.952,1.79-1.935,1.932-3.5.619-.2-.167-.4-.327-.551-.451l-7.144,7.182c1.711.153,3.581.248,4.939-1.047,2.7-2.579,5.944-2.853,9.371-2.654a1.448,1.448,0,0,1,.146,2.891,16.84,16.84,0,0,1-2.442.031,6.123,6.123,0,0,0-4.661,1.606,8.557,8.557,0,0,1-6.02,2.158,11.613,11.613,0,0,1-1.856-.011,4.757,4.757,0,0,0-4.719,1.96c-1.354,1.577-2.931,2.962-4.467,4.487,1.454,1.475,2.85,2.914,4.283,4.314.169.165.543.16.824.164,1.174.017,2.349.042,3.521,0s2.306-.014,3.026,1.26c1.867-1.346,3.955-1.238,6.044-1.269a59.542,59.542,0,0,0,6.424-.37,5.258,5.258,0,0,0,3.789-2.546c-.707,0-1.239,0-1.771,0-1.467,0-2.936.029-4.4-.027a1.472,1.472,0,0,1-1.479-1.511,1.45,1.45,0,0,1,1.575-1.39c2.543-.018,5.088.056,7.628-.033a21.082,21.082,0,0,0,4.14-.569,4.726,4.726,0,0,0,3.017-2.34h-3.383c-.62,0-1.241.025-1.859-.01a1.489,1.489,0,0,1-1.583-1.508c.016-.851.634-1.4,1.647-1.41,2.282-.015,4.569.084,6.845-.037a24.338,24.338,0,0,0,4.6-.737,2.784,2.784,0,0,0,2.058-2.166h-1.163c-4.4,0-8.8.005-13.206-.007-.416,0-.97.039-1.217-.2-.4-.381-.868-1.01-.807-1.468s.708-.868,1.158-1.221c.165-.129.506-.041.766-.041q7.337,0,14.672,0c2.165,0,3.16,1.226,2.74,3.342a6.046,6.046,0,0,1-4.287,4.653c-.97.346-2.031.432-3.037.688a1.275,1.275,0,0,0-.809.508c-1.476,3.395-4.261,4.859-7.735,5.321a1.5,1.5,0,0,0-1.223,2.227q7.086,13.823,14.2,27.632a2.075,2.075,0,0,0,.874.818,3.649,3.649,0,0,1,.811,6.114,20.473,20.473,0,0,1-7.618,3.852,1.429,1.429,0,0,1-1.765-1.007,1.535,1.535,0,0,1,1.046-1.841c1.835-.822,3.674-1.638,5.467-2.545.55-.279,1.438-.578,1.16-1.457-.262-.83-1.109-.508-1.715-.508q-14.428-.025-28.855-.011a2.708,2.708,0,0,0-.778.016c-.31.1-.792.259-.83.464a1.11,1.11,0,0,0,.366.961,37.126,37.126,0,0,0,4.979,2.644,30.677,30.677,0,0,0,13.563,1.674c.65-.051,1.3-.149,1.949-.144a1.323,1.323,0,0,1,1.388,1.251,1.3,1.3,0,0,1-1.041,1.546,13.855,13.855,0,0,1-2.226.281c-6.185.416-12.168-.335-17.749-3.218a17.319,17.319,0,0,1-2.864-1.855,3.647,3.647,0,0,1,.714-6.225,1.768,1.768,0,0,0,.769-.667q6.2-12.081,12.356-24.184c.013-.025,0-.063,0-.027l-10.969.4-.116.4c1.062,1.036,2.12,2.076,3.187,3.106.544.526.963,1.085.624,1.892a1.623,1.623,0,0,1-1.76.938c-1.362-.021-2.725-.006-4.2-.006,0,1.344-.009,2.6,0,3.866.007.836.024,1.678-.9,2.085-.989.435-1.592-.221-2.18-.85-.547-.584-1.081-1.181-1.62-1.773l-.288.164V337.3q0,16.827.007,33.654c.007,4.334-.549,8.547-2.852,12.309a32.908,32.908,0,0,1-3.556,4.638,3.246,3.246,0,0,1-4.936.052,20.9,20.9,0,0,1-6.327-14.112c-.126-2.212-.077-4.434-.084-6.651,0-1.159.546-1.821,1.443-1.825s1.448.662,1.484,1.807c.085,2.7.029,5.418.285,8.1a17.069,17.069,0,0,0,5.017,10.355c.54.561.849.448,1.33-.049a18.176,18.176,0,0,0,5.177-11.925c.064-1.041.074-2.086.074-3.129q.008-16.436,0-32.871v-1.47a37.18,37.18,0,0,1-2.782,2.738,4.688,4.688,0,0,0-1.734,4.14c.079,11.283.041,22.567.039,33.85a10.161,10.161,0,0,1-.023,1.075,1.447,1.447,0,0,1-2.893-.045c-.033-.356-.019-.717-.019-1.075q0-17.561.015-35.122a2.382,2.382,0,0,0-.772-1.882c-1.178-1.148-2.282-2.372-3.417-3.564l-.3.172V359.7c0,.261,0,.522,0,.783-.021,1.241-.535,1.915-1.463,1.925s-1.466-.656-1.467-1.9q-.009-9.539,0-19.077v-5.554c-.881.877-1.566,1.544-2.233,2.227a1.56,1.56,0,0,1-1.836.527,1.592,1.592,0,0,1-.92-1.68c.01-1.394,0-2.788,0-4.281-1.487,0-2.88-.013-4.273,0a1.581,1.581,0,0,1-1.678-.913,1.53,1.53,0,0,1,.526-1.828c1.084-1.073,2.159-2.154,3.451-3.445-.9-.127-1.555-.28-2.212-.3-2.377-.075-4.756-.09-7.134-.165a19.636,19.636,0,0,1-2.03-.278c.689,1.353,1.321,2.6,1.955,3.838q5.176,10.135,10.368,20.264a2.259,2.259,0,0,0,.885.941,3.674,3.674,0,0,1,.636,6.356,21.827,21.827,0,0,1-8.529,3.968,35.157,35.157,0,0,1-22.776-1.65,27.383,27.383,0,0,1-2.733-1.508A5.705,5.705,0,0,1,315,354.981v-1.566c.5-.739.845-1.768,1.543-2.152a5.408,5.408,0,0,0,2.211-2.693q.622-1.272,1.3-2.514a1.381,1.381,0,0,1,1.8-.749,1.45,1.45,0,0,1,.746,2.172c-.467.975-.975,1.931-1.491,2.947h26.059l-13-25.442c-.265.5-.423.778-.571,1.066q-3.967,7.734-7.934,15.466a5.084,5.084,0,0,1-.482.846,1.383,1.383,0,0,1-1.833.421,1.347,1.347,0,0,1-.715-1.652,4.564,4.564,0,0,1,.43-.978q4.5-8.778,9-17.554c.667-1.3.158-2.262-1.239-2.462-3.391-.486-6.11-1.949-7.583-5.247a1.355,1.355,0,0,0-.957-.574c-3.42-.432-6.217-1.683-7.292-5.318v-1.761a3.2,3.2,0,0,1,3.238-1.627c7.3.056,14.6.1,21.906-.008,3.064-.044,5.769.5,8.109,2.641,1.422,1.3,3.279,1.256,5.028,1.1l-7.12-7.2c-.2.165-.426.349-.649.536-1.472,1.232-2.456,1.093-3.368-.6a41.982,41.982,0,0,1-1.812-3.89,19.491,19.491,0,0,1-1.008-3.055,1.6,1.6,0,0,1,1.813-2.1,22.691,22.691,0,0,1,7.871,3.309,1.535,1.535,0,0,1,.322,2.4c-.291.42-.628.808-.888,1.14l16.746,16.757c1.952-1.95,3.965-3.936,5.934-5.965a1.271,1.271,0,0,0,.146-.975c-.272-1.406-.6-2.8-.908-4.2-1-4.542-2-9.082-3-13.658-2.842,0-5.642-.1-8.431.036a3.084,3.084,0,0,0-2.989,2.679c.369-.033.718-.071,1.07-.093a5.5,5.5,0,0,1,3.948,1.116,1.914,1.914,0,0,1,.687,1.467c-.518,2.749-1.151,5.478-1.788,8.2a1.441,1.441,0,1,1-2.819-.593c.071-.547.216-1.085.332-1.626.39-1.8.784-3.606,1.186-5.457a3.159,3.159,0,0,0-2.972.446,1.475,1.475,0,0,1-2.55-.816,6.429,6.429,0,0,1,3.772-7.778c.533-.218,1.087-.385,1.632-.575Zm-42.6,25.6a5.628,5.628,0,0,0,4.759,2.753c3.251.155,6.512.131,9.768.182,1.141.018,1.818.564,1.807,1.461s-.7,1.458-1.836,1.469c-1.662.017-3.324,0-4.986.01a6.865,6.865,0,0,0-.771.1,5.144,5.144,0,0,0,3.746,2.451,58.717,58.717,0,0,0,6.225.368c2.146.042,4.31-.141,6.224,1.273a2.784,2.784,0,0,1,2.94-1.27c1.2.061,2.411.023,3.617.006a1.334,1.334,0,0,0,.823-.166c1.433-1.4,2.829-2.837,4.3-4.328a43.012,43.012,0,0,1-3.723-3.709c-1.722-2.173-3.773-3.234-6.553-2.712a4.887,4.887,0,0,1-.879,0,8.416,8.416,0,0,1-5.842-2.091,6.71,6.71,0,0,0-4.833-1.682c-7.332.048-14.666.019-22,.019h-1.111a2.679,2.679,0,0,0,2.05,2.172,25.337,25.337,0,0,0,4.693.733c2.275.12,4.561.019,6.842.039a1.432,1.432,0,0,1,1.531,1.326,1.482,1.482,0,0,1-1.4,1.578,7.755,7.755,0,0,1-.976.023C329.383,314.441,327.955,314.44,326.4,314.44Zm82.685,36-13.075-25.478c-4.392,8.6-8.675,16.99-13.009,25.478Zm-74.932,2.984c-5.015,0-10.03-.012-15.046.024-.377,0-.751.342-1.126.526.195.34.306.82.6.995a29.154,29.154,0,0,0,4.267,2.322,32.207,32.207,0,0,0,17.1,1.508,21.817,21.817,0,0,0,9.562-3.678c.354-.257.5-.8.744-1.208a3.984,3.984,0,0,0-1.252-.467C344.05,353.411,339.1,353.423,334.15,353.423Zm30.943-15.7,5.371-5.369c-1.14-.657-.989-1.836-.978-2.977s.014-2.279-.006-3.419a1.324,1.324,0,0,0-.19-.821c-1.374-1.418-2.786-2.8-4.291-4.295a10.8,10.8,0,0,1-1.45,1.565,6.663,6.663,0,0,0-2.886,6.975c.174,1.12.182,2.314-.941,2.973Zm-10.937-3.975c1.277-1.276,2.372-2.367,3.461-3.464a.416.416,0,0,0,.1-.266c.007-1.254,0-2.508,0-3.829-1.305,0-2.475-.007-3.643.007a.84.84,0,0,0-.532.171c-1.091,1.05-2.163,2.12-3.438,3.379,1.031,0,1.769-.022,2.505.005a1.429,1.429,0,0,1,1.533,1.529C354.177,332.011,354.156,332.747,354.156,333.744Zm18.27-7.558c0,1.221-.009,2.3.007,3.369a1.2,1.2,0,0,0,.157.737c1.062,1.114,2.16,2.193,3.429,3.464,0-1-.017-1.714,0-2.422a1.446,1.446,0,0,1,1.573-1.589c.731-.023,1.463,0,2.448,0-1.247-1.242-2.3-2.3-3.364-3.334a.826.826,0,0,0-.516-.211C374.965,326.176,373.765,326.185,372.426,326.185Zm11.76-28.281,1.746,1.971,1.425-3.325Zm-41.08-1.247-.176.172,1.248,2.856,1.851-1.754Z" transform="translate(-315.003 -288.842)"/></g><g transform="translate(0 4.147)"><path class="c" d="M351.082,362.41a2.259,2.259,0,0,1-.885-.941q-5.2-10.121-10.368-20.264c-.634-1.242-1.266-2.485-1.955-3.838.758.108-5.424-3.885-5.8-3.15q-4.5,8.777-9,17.554a4.564,4.564,0,0,0-.43.978,1.347,1.347,0,0,0,.715,1.652,1.383,1.383,0,0,0,1.833-.421,5.081,5.081,0,0,0,.482-.846q3.969-7.732,7.934-15.466c.148-.288.306-.571.571-1.066l13,25.442H321.116c.516-1.016,1.024-1.972,1.491-2.947a1.45,1.45,0,0,0-.746-2.172,1.381,1.381,0,0,0-1.8.749q-.679,1.242-1.3,2.514a5.408,5.408,0,0,1-2.211,2.693c-.7.384-1.041,1.413-1.543,2.152V366.6a5.705,5.705,0,0,0,2.678,2.975,27.3,27.3,0,0,0,2.734,1.508,35.154,35.154,0,0,0,22.775,1.65,21.826,21.826,0,0,0,8.529-3.968A3.674,3.674,0,0,0,351.082,362.41Zm-1.575,4.328a21.818,21.818,0,0,1-9.562,3.678,32.208,32.208,0,0,1-17.1-1.508,29.16,29.16,0,0,1-4.267-2.322c-.294-.175-.4-.655-.6-.995.375-.184.749-.523,1.126-.526,5.015-.036,10.03-.024,15.046-.024,4.95,0,9.9-.012,14.85.021a3.986,3.986,0,0,1,1.252.467C350.009,365.939,349.862,366.48,349.508,366.738Z" transform="translate(-315.003 -304.608)"/><path class="d" d="M384.5,416.443c1.142-.021,1.986-2.148,2.563-4.368a17.953,17.953,0,0,1-2.789,4.305A.465.465,0,0,0,384.5,416.443Z" transform="translate(-332.776 -324.607)"/><path class="d" d="M397.4,294.459a22.78,22.78,0,0,0-7.871,3.314,1.532,1.532,0,0,0-.311,2.4c.293.418.631.8.85,1.079l-7.822,7.817c-.034-.111-2.558,2.834-2.747,3.029-1.97,2.028-3.983,4.014-5.935,5.965L356.819,301.3c.26-.332.6-.72.888-1.14a1.535,1.535,0,0,0-.322-2.4,22.691,22.691,0,0,0-7.871-3.309,1.6,1.6,0,0,0-1.813,2.1,19.488,19.488,0,0,0,1.008,3.055,42,42,0,0,0,1.812,3.89c.912,1.689,1.9,1.828,3.368.6.223-.187.449-.371.649-.536l6.748,6.828c1.262.641,5.022,4.361,6.378,6.072a42.989,42.989,0,0,0,3.723,3.709c-1.472,1.491-2.868,2.929-4.3,4.328a1.334,1.334,0,0,1-.823.166c-1.206.017-2.414.055-3.617-.006a2.784,2.784,0,0,0-2.94,1.27c-1.122.889-4.448,4.362-5.532,5.435a1.53,1.53,0,0,0-.526,1.828,1.581,1.581,0,0,0,1.678.913c1.392-.017,2.786,0,4.273,0,0,1.494.007,2.887,0,4.281a1.592,1.592,0,0,0,.92,1.68,1.561,1.561,0,0,0,1.836-.527c.668-.683,1.352-1.35,2.233-2.227l3.235.418c1.134,1.192,2.238,2.416,3.417,3.564a2.382,2.382,0,0,1,.772,1.882q-.035,17.56-.015,35.122c0,.358-.014.719.019,1.075a1.447,1.447,0,0,0,2.893.045,10.153,10.153,0,0,0,.023-1.075c0-11.283.039-22.567-.039-33.85a4.687,4.687,0,0,1,1.734-4.14,37.175,37.175,0,0,0,2.782-2.738s3.126-.127,3.222-.182c.539.592,1.073,1.189,1.62,1.773.589.629,1.192,1.285,2.18.85.926-.407.909-1.249.9-2.085-.013-1.261,0-2.522,0-3.866,1.474,0,2.837-.015,4.2.005a1.622,1.622,0,0,0,1.76-.937c.339-.807-.08-1.366-.624-1.892-1.067-1.03-2.125-2.07-3.187-3.106,0,0-1.381-1.423-2.26-2.247-.72-1.274-1.843-1.305-3.026-1.26s-2.347.019-3.521,0c-.28,0-.655,0-.824-.164-1.433-1.4-2.829-2.839-4.283-4.314,1.537-1.525,3.113-2.91,4.467-4.487,1.137-1.326,5.576-4.9,5.24-4.933l7.145-7.182c.15.123.353.284.551.451,1.56,1.313,2.543,1.171,3.5-.619.672-1.262,1.255-2.576,1.8-3.9a18.685,18.685,0,0,0,.966-2.966A1.6,1.6,0,0,0,397.4,294.459Zm-44.849,6.657L351.3,298.26l.176-.172,2.923,1.274ZM366.1,331.444a.416.416,0,0,1-.1.266c-1.088,1.1-2.184,2.189-3.461,3.464,0-1,.022-1.733-.005-2.468a1.429,1.429,0,0,0-1.533-1.529c-.736-.028-1.474-.005-2.505-.005,1.274-1.259,2.346-2.328,3.438-3.379a.84.84,0,0,1,.532-.171c1.168-.015,2.337-.008,3.643-.008C366.1,328.936,366.1,330.19,366.1,331.444Zm14.706-3.828c1.339,0,2.539-.009,3.738.009a.826.826,0,0,1,.516.211c1.067,1.038,2.117,2.093,3.364,3.334-.985,0-1.717-.019-2.448,0a1.446,1.446,0,0,0-1.573,1.589c-.021.708,0,1.418,0,2.422-1.269-1.271-2.368-2.35-3.429-3.464a1.2,1.2,0,0,1-.157-.737C380.792,329.912,380.8,328.838,380.8,327.616Zm-3.136-1.053a1.325,1.325,0,0,1,.19.821c.02,1.14.018,2.279.006,3.419s-.162,2.321.978,2.977l-5.37,5.369-5.371-5.369c1.123-.659,1.115-1.853.941-2.973a6.663,6.663,0,0,1,2.886-6.975,10.844,10.844,0,0,0,1.45-1.565C374.88,323.764,376.291,325.145,377.665,326.563Zm16.642-25.257-1.746-1.971,3.171-1.354C395.209,299.2,394.8,300.169,394.308,301.306Z" transform="translate(-323.378 -294.42)"/><path class="c" d="M434.419,361.775a2.075,2.075,0,0,1-.874-.818q-7.122-13.8-14.2-27.632a1.453,1.453,0,0,1,.284-1.8c-.71-.02-1.419-.016-2.127,0a3.284,3.284,0,0,1-1.783.95,3.232,3.232,0,0,1-.864.451l-.038.028a3.688,3.688,0,0,1-2.041,3.749c-.07.072-.135.149-.21.215l.981-.036c0-.036.012,0,0,.027q-6.169,12.1-12.356,24.184a1.768,1.768,0,0,1-.769.667,3.647,3.647,0,0,0-.714,6.225,17.369,17.369,0,0,0,2.864,1.855c5.582,2.882,11.564,3.633,17.749,3.218a13.848,13.848,0,0,0,2.226-.281,1.3,1.3,0,0,0,1.041-1.546,1.323,1.323,0,0,0-1.388-1.251c-.649-.006-1.3.093-1.949.143a30.676,30.676,0,0,1-13.563-1.674,37.126,37.126,0,0,1-4.979-2.644,1.11,1.11,0,0,1-.367-.961c.039-.2.52-.367.83-.464a2.708,2.708,0,0,1,.778-.016q14.428,0,28.855.011c.606,0,1.453-.322,1.715.509.278.879-.61,1.178-1.16,1.457-1.793.907-3.632,1.723-5.467,2.545a1.535,1.535,0,0,0-1.046,1.841,1.429,1.429,0,0,0,1.765,1.007,20.472,20.472,0,0,0,7.618-3.852A3.649,3.649,0,0,0,434.419,361.775Zm-30.058-.388c4.334-8.488,8.617-16.875,13.009-25.478,4.4,8.564,8.7,16.958,13.075,25.478Z" transform="translate(-336.367 -303.937)"/></g></g></g></svg>