<svg xmlns="http://www.w3.org/2000/svg" width="80" height="80" viewBox="0 0 80 80"><defs><style>.a{fill:none;}.b{fill:#0c9502;}.c{fill:#fff;}</style></defs><g transform="translate(-266 -695)"><circle class="a" cx="40" cy="40" r="40" transform="translate(266 695)"/><g transform="translate(3663 14002)"><g transform="translate(-3377 -13287)"><path class="b" d="M16.009,0H40V40H0V16.009A16.009,16.009,0,0,1,16.009,0Z" transform="translate(40) rotate(90)"/><circle class="a" cx="20" cy="20" r="20"/><g transform="translate(7.917 8.354)"><path class="c" d="M639.782,324.063a.728.728,0,0,1-.411-.782c.02-.272,0-.545,0-.818,0-.625.177-.853.807-1.015,0-.166,0-.339,0-.512a.79.79,0,0,1,.834-.825c.811,0,1.622,0,2.434,0,.052,0,.105-.005.175-.008v-1.176h-.9a1.458,1.458,0,0,1-.643-2.807.275.275,0,0,0,.116-.18,2.8,2.8,0,0,0,.006-.34.661.661,0,0,0-.2-.587.709.709,0,0,1-.173-.472c-.016-.947-.021-1.9,0-2.842a1.767,1.767,0,0,1,.234-.567,1.124,1.124,0,0,0,.125-.31c.02-.218.006-.438.006-.656a1.477,1.477,0,0,1-1.026-1.284,1.438,1.438,0,0,1,1.317-1.561c.375-.021.754,0,1.154,0v-.3q0-2.764,0-5.527c0-.515.2-.713.714-.713h14.195c.518,0,.71.193.71.716q0,1.239,0,2.479c0,.03,0,.06,0,.091-.006.266-.133.418-.345.415s-.335-.157-.337-.426c0-.5,0-1,0-1.5v-1.078H644.342v5.846c.412,0,.82-.014,1.226,0a1.447,1.447,0,0,1,.5,2.768.245.245,0,0,0-.178.287,1.651,1.651,0,0,1,0,.272.753.753,0,0,0,.189.568,2.768,2.768,0,0,1,.292.789c.388,0,.848,0,1.307-.005.042,0,.09-.067.125-.112a.578.578,0,0,1,.487-.246c.326,0,.654-.022.977.011a.849.849,0,0,1,.445.221.377.377,0,0,0,.281.135c.675-.005,1.35,0,2.025-.008a.4.4,0,0,0,.26-.118.647.647,0,0,1,.493-.24c.629,0,1.259,0,1.888,0,.24,0,.377.125.382.328a.343.343,0,0,1-.386.352c-.516.005-1.031,0-1.547,0h-.253V313.9a1.276,1.276,0,0,0,.154.018q3.389,0,6.779,0a.8.8,0,0,0,.247-1.564,1.32,1.32,0,0,0-.338-.03q-1.6,0-3.207,0c-.06,0-.122,0-.182,0a.341.341,0,0,1-.344-.348.325.325,0,0,1,.357-.33c.538-.005,1.077,0,1.615,0h.647v-.277q0-2.718,0-5.436a1.1,1.1,0,0,1,.021-.27.333.333,0,0,1,.656.051c.007.075,0,.152,0,.228q0,2.706,0,5.413v.294c.213,0,.4,0,.588,0a1.479,1.479,0,0,1,.013,2.957c-.189.007-.378,0-.6,0v.278c0,2.82,0,5.641,0,8.461a.7.7,0,0,1-.422.726Zm8.936-.7h9.848V314.6h-.285q-2.706,0-5.412,0a.706.706,0,0,1-.6-.258.325.325,0,0,0-.223-.1q-1.046-.011-2.092,0a.325.325,0,0,0-.215.111.629.629,0,0,1-.512.247q-.454,0-.91,0a.6.6,0,0,1-.525-.262.219.219,0,0,0-.133-.1c-.453-.007-.905,0-1.292,0a3.213,3.213,0,0,1-.3.8.729.729,0,0,0-.18.523,1.512,1.512,0,0,1,0,.3c-.018.158.043.234.193.3a1.449,1.449,0,0,1-.595,2.768c-.326.005-.652,0-.978,0a1.643,1.643,0,0,0-.168.017v1.168h.258c.818,0,1.637,0,2.456,0a.809.809,0,0,1,.867.867c0,.158,0,.316,0,.469.639.173.8.383.8,1.038Zm-8.66,0h7.977c0-.319-.01-.622,0-.925.01-.214-.056-.29-.282-.289-1.228.01-2.456.005-3.685,0a1.793,1.793,0,0,1-.227,0,.314.314,0,0,1-.3-.314.321.321,0,0,1,.281-.356.946.946,0,0,1,.2-.008h3.21v-.351c0-.328,0-.329-.327-.329H641.18a.5.5,0,0,0-.18.007c-.052.022-.123.078-.127.124-.015.177-.006.356-.006.549h.323c.364,0,.728-.006,1.092,0a.339.339,0,1,1,0,.677c-.06,0-.121,0-.182,0h-1.8c-.116,0-.241-.01-.242.16C640.057,322.662,640.058,323.009,640.058,323.364Zm4-11.77c-.44,0-.88.006-1.319,0-.173,0-.243.045-.242.23q.011,1.3,0,2.593c0,.182.066.235.241.234q1.307-.01,2.616,0c.172,0,.247-.05.245-.233q-.009-1.3,0-2.593c0-.185-.074-.233-.245-.23C644.926,311.6,644.494,311.594,644.062,311.594Zm-.023,6.649c.469,0,.939,0,1.408,0a.772.772,0,1,0,.009-1.544q-1.408-.009-2.817,0a.772.772,0,1,0,.014,1.543C643.114,318.246,643.576,318.243,644.038,318.243Zm.01-10.254h-1.362a.776.776,0,1,0-.011,1.548q1.374.011,2.748,0a.775.775,0,1,0-.011-1.546C644.957,307.985,644.5,307.989,644.048,307.989Zm8.093,5.554V312.7h-2.292v.847Zm-9.245-3.307v.661h2.292v-.661Zm0,5.1V316h2.3v-.657Zm6.239-1.432v-1.575H648.4v1.575Zm-1.447-1.208H646.3v.84h1.395Z" transform="translate(-639.368 -300.771)"/><path class="c" d="M663.445,305.869a3.532,3.532,0,1,1-3.542,3.489A3.522,3.522,0,0,1,663.445,305.869Zm0,.682a2.849,2.849,0,1,0,2.84,2.855A2.847,2.847,0,0,0,663.441,306.551Z" transform="translate(-651.347 -303.745)"/><path class="c" d="M667.85,345.116c-1.007,0-2.015,0-3.022,0a.533.533,0,0,1-.345-.116.376.376,0,0,1-.07-.326c.032-.094.156-.169.256-.223a.507.507,0,0,1,.224-.012h6.021c.264,0,.422.131.423.34s-.156.341-.419.342Q669.384,345.118,667.85,345.116Z" transform="translate(-653.97 -326.237)"/><path class="c" d="M667.835,337.157c-1.022,0-2.045,0-3.067,0a.361.361,0,0,1-.394-.239.336.336,0,0,1,.277-.439,1.231,1.231,0,0,1,.2-.006h5.953a1.109,1.109,0,0,1,.2.006.322.322,0,0,1,.294.345.316.316,0,0,1-.313.327,2.907,2.907,0,0,1-.3,0Z" transform="translate(-653.944 -321.597)"/><path class="c" d="M666.511,348.435c.583,0,1.167,0,1.75,0a.327.327,0,0,1,.364.323c.007.2-.126.335-.36.354-.067.005-.136,0-.2,0h-3.068c-.068,0-.136,0-.2,0-.277-.009-.417-.125-.419-.341s.138-.338.415-.34c.575,0,1.151,0,1.727,0Z" transform="translate(-653.952 -328.574)"/><path class="c" d="M673.637,341.142c-.5,0-1,0-1.5,0a.472.472,0,0,1-.3-.068.441.441,0,0,1-.133-.327c.018-.1.138-.2.236-.263.06-.04.162-.021.245-.021h2.91c.061,0,.122,0,.182.006a.335.335,0,0,1,0,.668c-.272.014-.545.007-.818.007Z" transform="translate(-658.23 -323.92)"/><path class="c" d="M665.606,341.144c-.28,0-.56,0-.84,0-.258-.005-.4-.127-.4-.337s.132-.339.391-.341q.874-.008,1.748,0c.251,0,.392.137.387.346s-.142.326-.381.332C666.211,341.149,665.909,341.144,665.606,341.144Z" transform="translate(-653.952 -323.923)"/><path class="c" d="M676.657,348.434c.258,0,.515-.005.772,0a.34.34,0,0,1,.372.318.337.337,0,0,1-.357.357q-.806.014-1.613,0a.337.337,0,1,1,.008-.673C676.112,348.429,676.385,348.435,676.657,348.434Z" transform="translate(-660.436 -328.574)"/><path class="c" d="M666.024,313.31l1.225-1.226c.059-.059.115-.122.179-.174a.337.337,0,0,1,.477.477c-.141.158-.3.3-.445.454q-.553.554-1.108,1.108c-.243.241-.393.24-.635,0q-.46-.456-.915-.916c-.19-.192-.208-.385-.056-.537s.35-.131.537.055C665.527,312.794,665.766,313.045,666.024,313.31Z" transform="translate(-654.111 -307.213)"/></g></g></g></g></svg>