<svg xmlns="http://www.w3.org/2000/svg" width="80" height="80" viewBox="0 0 80 80"><defs><style>.a{fill:none;}.b{fill:#0073d8;}.c{fill:#fff;}</style></defs><g transform="translate(-14 -577)"><circle class="a" cx="40" cy="40" r="40" transform="translate(14 577)"/><g transform="translate(2970.887 13760)"><path class="b" d="M16.009,0H40V40H0V16.009A16.009,16.009,0,0,1,16.009,0Z" transform="translate(-2896.887 -13163) rotate(90)"/><g transform="translate(-2936.887 -13163)"><circle class="a" cx="20" cy="20" r="20"/><g transform="translate(8.359 11.109)"><path class="c" d="M736.986,308.629A1.023,1.023,0,0,1,737.6,308q5.26-2.419,10.514-4.85a1.115,1.115,0,0,1,1.039,0c.549.272,1.113.515,1.668.775.235.11.318.266.265.465-.062.235-.3.325-.572.2-.49-.22-.987-.429-1.461-.68a.846.846,0,0,0-.844,0q-5.113,2.384-10.239,4.742c-.067.031-.131.066-.23.115.332.155.63.3.93.435q1.9.884,3.812,1.763a.405.405,0,0,0,.293.03c1.405-.638,2.806-1.286,4.17-1.915a3,3,0,0,1,.115-.661,1.194,1.194,0,0,1,.863-.643,2.371,2.371,0,0,1,1.829.175.888.888,0,0,1-.05,1.655,2.5,2.5,0,0,1-2.008.071.366.366,0,0,0-.25-.008q-1.9.866-3.795,1.747a.476.476,0,0,0-.069.05c.073.038.137.073.2.1,1.539.71,3.077,1.423,4.62,2.125a.483.483,0,0,0,.356.012q5.328-2.433,10.649-4.882c.027-.013.052-.03.1-.061-.1-.051-.184-.1-.271-.137l-7.337-3.391c-.048-.022-.1-.044-.143-.068-.242-.123-.329-.312-.236-.513a.376.376,0,0,1,.541-.157c.662.3,1.32.606,1.98.911l5.587,2.577.124.057a.767.767,0,0,1,0,1.448c-.956.439-1.908.888-2.869,1.315a.4.4,0,0,0-.278.44c.01,1.8.005,3.608.006,5.412a2.478,2.478,0,0,1-.327,1.372,1.565,1.565,0,0,1-.733.62,17.884,17.884,0,0,1-7.954,1.318,17.537,17.537,0,0,1-3.653-.558c-.051-.013-.1-.019-.2-.035,0,.144.006.276,0,.408a1.072,1.072,0,0,1-2.1.232,5.938,5.938,0,0,1-.022-1.089.434.434,0,0,0-.243-.445,1.659,1.659,0,0,1-.709-1.31,4.758,4.758,0,0,1-.023-.568q0-2.706,0-5.412a.329.329,0,0,0-.224-.358c-.919-.41-1.828-.842-2.746-1.257a1.154,1.154,0,0,1-.695-.636Zm18.906,7.382c-.417.165-.773.31-1.134.446a.37.37,0,1,1-.267-.684c.223-.094.445-.195.675-.266a.957.957,0,0,0,.692-1.005c.015-1.031.008-2.062.009-3.092a.734.734,0,0,0-.019-.108c-.459.211-.9.414-1.349.62q-2.691,1.241-5.38,2.485a1,1,0,0,1-.911.021c-1.612-.751-3.231-1.487-4.848-2.228-.093-.042-.188-.083-.316-.14v.261c0,1.107,0,2.213,0,3.32a.261.261,0,0,0,.217.3,17.946,17.946,0,0,0,4.008.755,18.27,18.27,0,0,0,5.064-.322c.326-.067.648-.154.973-.226a.373.373,0,0,1,.481.262.366.366,0,0,1-.283.448c-.057.019-.117.031-.175.046a19.032,19.032,0,0,1-9.836-.125c-.136-.039-.273-.075-.41-.113-.082.384-.05.417.213.625a1.174,1.174,0,0,1,.371.469,2.215,2.215,0,0,1,.083.669c.006.125.033.189.168.215.757.146,1.507.337,2.27.449a17.937,17.937,0,0,0,6.5-.281,11.111,11.111,0,0,0,2.6-.858.894.894,0,0,0,.529-.719C755.865,316.841,755.868,316.44,755.892,316.012ZM741.4,311.3c0,1.118-.015,2.193.006,3.266a.962.962,0,0,0,.9,1v-.16c0-1.188,0-2.377,0-3.565a.209.209,0,0,0-.084-.16C741.96,311.549,741.692,311.431,741.4,311.3Zm1.6,7.693c0-.28,0-.56,0-.84,0-.213-.125-.289-.324-.288s-.322.082-.323.292c0,.538,0,1.075,0,1.613,0,.21.117.3.317.3.234,0,.325-.075.331-.3C743.008,319.5,743,319.247,743,318.99Zm-1.389-1.282c.222-.18.427-.345.63-.513.026-.021.06-.054.061-.083.005-.219.007-.438,0-.657a.14.14,0,0,0-.076-.094c-.268-.117-.538-.228-.842-.355C741.426,316.612,741.267,317.214,741.613,317.708Zm7.031-9.341c-.279.094-.558.173-.824.283-.14.058-.127.163,0,.258a1.712,1.712,0,0,0,1.617.006c.14-.1.142-.208-.006-.271C749.184,308.537,748.926,308.464,748.644,308.367Z" transform="translate(-736.986 -303.027)"/></g></g></g></g></svg>