<svg xmlns="http://www.w3.org/2000/svg" width="80" height="80" viewBox="0 0 80 80"><defs><style>.a{fill:none;}.b{fill:#fb9335;}.c{fill:#fff;}</style></defs><g transform="translate(-182 -577)"><circle class="a" cx="40" cy="40" r="40" transform="translate(182 577)"/><g transform="translate(2490.001 13760)"><path class="b" d="M16.009,0H40V40H0V16.009A16.009,16.009,0,0,1,16.009,0Z" transform="translate(-2248.002 -13163) rotate(90)"/><g transform="translate(-2288 -13163)"><circle class="a" cx="20" cy="20" r="20"/><g transform="translate(8.356 8.355)"><path class="c" d="M458.779,450.766c-.027.06-.057.12-.08.181a1.228,1.228,0,0,1-1.149.816q-3.434.007-6.868,0a1.234,1.234,0,0,1-1.223-1.243c-.009-.72,0-1.44,0-2.16V448.1h-4.643v.245c0,.7,0,1.395,0,2.092a1.254,1.254,0,0,1-1.321,1.332q-3.343,0-6.686,0a1.249,1.249,0,0,1-1.314-1.314q0-3,0-6a1.249,1.249,0,0,1,1.309-1.32q3.354-.005,6.709,0a1.254,1.254,0,0,1,1.3,1.3c0,.209,0,.417,0,.691l1.847-1.975c-.049-.059-.088-.112-.133-.16q-1.5-1.6-3-3.207c-.306-.326-.544-.322-.857.012l-2.034,2.176a1.277,1.277,0,0,1-.162.158.312.312,0,0,1-.434-.024.32.32,0,0,1-.046-.434.861.861,0,0,1,.117-.138q1.04-1.113,2.081-2.226a1.14,1.14,0,0,1,1.817,0q1.448,1.541,2.889,3.09l.255.272a2.43,2.43,0,0,1,.155-.21q1.465-1.572,2.933-3.141a1.143,1.143,0,0,1,1.833,0q1.71,1.826,3.414,3.657a.449.449,0,0,0,.372.163c.515-.01,1.031,0,1.546,0a1.26,1.26,0,0,1,1.329.948.207.207,0,0,0,.039.051v1.319c-.112.155-.241.282-.453.205s-.237-.251-.231-.446c.006-.235,0-.469,0-.7,0-.476-.214-.69-.7-.69h-6.569c-.478,0-.693.216-.693.694q0,2.944,0,5.888c0,.48.213.694.69.694H457.4c.492,0,.7-.21.7-.709,0-1.038,0-2.076,0-3.114,0-.2.029-.373.237-.442s.346.045.448.217Zm-18.626.318h3.3a.594.594,0,0,0,.68-.682q0-2.956,0-5.912a.6.6,0,0,0-.684-.68q-3.3,0-6.595,0a.594.594,0,0,0-.679.684q0,2.956,0,5.912a.593.593,0,0,0,.682.678Zm14.557-7.958c-1.1-1.172-2.143-2.3-3.2-3.418a.451.451,0,0,0-.73.028q-2.936,3.138-5.867,6.28a.312.312,0,0,0-.1.169c-.008.4,0,.8,0,1.2h4.642v-.261q0-1.307,0-2.615a1.268,1.268,0,0,1,1.384-1.384h3.869Z" transform="translate(-435.49 -428.478)"/><path class="c" d="M456.553,413.957a.746.746,0,0,1,.418.5c.035.123.089.241.135.361.206.547.2.55.749.76a.344.344,0,0,0,.23-.015c.286-.12.567-.252.849-.38a.567.567,0,0,1,.686.117c.679.649.681.647.292,1.508a.38.38,0,0,1-.039.082c-.282.355-.121.693.044,1.025a.337.337,0,0,0,.172.125c.281.112.566.214.848.324a.54.54,0,0,1,.4.586c0,.182,0,.364,0,.545a.523.523,0,0,1-.364.521c-.289.112-.584.211-.866.338a.681.681,0,0,0-.236.235.825.825,0,0,0,.028.983,4.246,4.246,0,0,1,.227.495.539.539,0,0,1-.126.644c-.127.13-.257.257-.385.386a.55.55,0,0,1-.665.122c-.283-.127-.561-.265-.849-.379a.565.565,0,0,0-.292,0,.878.878,0,0,0-.714.763,3.209,3.209,0,0,1-.148.4,1,1,0,0,1-.064.145c-.254.433-.68.271-1.048.292a.525.525,0,0,1-.552-.356c-.11-.281-.22-.564-.319-.85a.5.5,0,0,0-.261-.279.858.858,0,0,0-.966.036,3.832,3.832,0,0,1-.516.235.533.533,0,0,1-.627-.118c-.716-.7-.719-.643-.311-1.522a.283.283,0,0,1,.031-.061.877.877,0,0,0-.033-1.047.338.338,0,0,0-.171-.125c-.281-.112-.566-.213-.848-.322a.543.543,0,0,1-.4-.586c0-.182,0-.364,0-.545a.524.524,0,0,1,.36-.525c.288-.114.585-.21.867-.336a.654.654,0,0,0,.236-.234.825.825,0,0,0-.024-.983,3.626,3.626,0,0,1-.236-.516.521.521,0,0,1,.116-.606c.126-.131.256-.259.385-.386a.558.558,0,0,1,.721-.126c.263.116.52.247.788.349a.654.654,0,0,0,.332,0,.825.825,0,0,0,.683-.706,1.63,1.63,0,0,1,.2-.506,2.569,2.569,0,0,1,.361-.382Zm2.628,1.87c-.333.15-.643.316-.97.426a1.031,1.031,0,0,1-.54-.005,2.181,2.181,0,0,1-.605-.25,1,1,0,0,1-.37-.363,5.589,5.589,0,0,1-.325-.847c-.047-.146-.136-.157-.257-.149s-.234-.03-.285.142c-.07.239-.186.464-.256.7a.767.767,0,0,1-.6.58c-.152.037-.286.151-.438.181a1.142,1.142,0,0,1-.54.011,5.8,5.8,0,0,1-.849-.378c-.15-.076-.2.035-.28.108s-.16.125-.089.264c.138.269.256.549.377.826a1.615,1.615,0,0,1-.645,1.551c-.275.107-.548.22-.829.31-.156.049-.136.154-.138.266s-.015.219.14.266c.238.074.464.188.7.259a.767.767,0,0,1,.574.581,2.346,2.346,0,0,0,.2.458.582.582,0,0,1,.012.544c-.129.274-.241.556-.379.825-.071.139-.006.2.079.288s.154.172.306.092a5.245,5.245,0,0,1,.829-.367,1,1,0,0,1,.519,0c.21.052.4.169.609.243a.6.6,0,0,1,.389.382c.1.277.217.549.308.83.049.151.14.168.273.166s.226-.01.276-.163c.091-.28.21-.552.308-.83a.614.614,0,0,1,.408-.393,5.756,5.756,0,0,0,.565-.234.621.621,0,0,1,.567-.009c.247.116.5.215.743.34a.27.27,0,0,0,.373-.055.252.252,0,0,0,.049-.351c-.107-.208-.181-.435-.294-.639a.733.733,0,0,1,.012-.793,1.778,1.778,0,0,0,.17-.42.642.642,0,0,1,.453-.463c.258-.086.506-.205.766-.283.173-.051.16-.163.167-.295a.227.227,0,0,0-.175-.268,5.711,5.711,0,0,1-.825-.317,1.018,1.018,0,0,1-.362-.373c-.108-.179-.157-.392-.249-.582a.609.609,0,0,1-.01-.565c.149-.314.286-.633.428-.95Z" transform="translate(-444.454 -413.957)"/><path class="c" d="M482.258,430.534q0,1.783,0,3.568a1.388,1.388,0,0,1,0,.2.337.337,0,0,1-.664.033,1.029,1.029,0,0,1-.013-.249q0-3.534,0-7.069c0-.472-.136-.61-.607-.61H478.65a.952.952,0,0,1-.226-.012.318.318,0,0,1-.27-.363.3.3,0,0,1,.31-.3c.939,0,1.88-.023,2.818.012a1.086,1.086,0,0,1,.975,1.127C482.261,428.094,482.258,429.314,482.258,430.534Z" transform="translate(-460.377 -420.822)"/><path class="c" d="M438.869,430.518q0-1.774,0-3.547a1.133,1.133,0,0,1,1.224-1.238c.8,0,1.592,0,2.387,0,.307,0,.462.119.457.346s-.165.336-.472.336c-.781,0-1.562,0-2.342,0-.423,0-.572.152-.572.577q0,3.536,0,7.071c0,.061,0,.121,0,.182-.008.245-.141.4-.342.4s-.338-.154-.339-.4Q438.867,432.382,438.869,430.518Z" transform="translate(-437.461 -420.825)"/><path class="c" d="M475.473,456.411c0-.507,0-1.014,0-1.522a.583.583,0,0,1,.935-.556c.912.507,1.821,1.02,2.734,1.525a.591.591,0,0,1,0,1.108c-.906.5-1.809,1.01-2.714,1.514-.529.295-.951.041-.953-.57C475.471,457.411,475.473,456.911,475.473,456.411Zm3.257,0-2.561-1.431v2.83a.281.281,0,0,0,.077-.014Z" transform="translate(-458.813 -437.444)"/><path class="c" d="M442.893,463.283q-1.113,0-2.226,0a1.019,1.019,0,0,1-.247-.02.333.333,0,0,1,.026-.649,1.061,1.061,0,0,1,.2-.011q2.237,0,4.473,0c.068,0,.157-.019.2.015a.743.743,0,0,1,.261.295.276.276,0,0,1-.219.344.838.838,0,0,1-.246.026Q444,463.284,442.893,463.283Z" transform="translate(-438.222 -442.33)"/><path class="c" d="M442.863,455.4h-2.18a1.371,1.371,0,0,1-.226-.011.333.333,0,0,1,0-.658,1.288,1.288,0,0,1,.226-.012h4.4c.053,0,.106,0,.159,0a.334.334,0,0,1,.351.338.328.328,0,0,1-.348.338c-.113.008-.227,0-.34,0Z" transform="translate(-438.223 -437.736)"/><path class="c" d="M442.877,459.349q-1.1,0-2.2,0a1,1,0,0,1-.27-.024.333.333,0,0,1,.013-.637.994.994,0,0,1,.248-.019h4.428a1.335,1.335,0,0,1,.226.012.333.333,0,0,1,.009.654,1.2,1.2,0,0,1-.249.015Z" transform="translate(-438.223 -440.038)"/><path class="c" d="M460.182,425.608a2.321,2.321,0,1,1,2.327-2.3A2.316,2.316,0,0,1,460.182,425.608Zm.013-.682a1.639,1.639,0,1,0-1.644-1.618A1.633,1.633,0,0,0,460.195,424.926Z" transform="translate(-448.544 -418.045)"/></g></g></g></g></svg>