<svg xmlns="http://www.w3.org/2000/svg" width="80" height="80" viewBox="0 0 80 80"><defs><style>.a{fill:none;}.b{fill:#82098b;}.c{fill:#fff;}</style></defs><g transform="translate(-98 -577)"><circle class="a" cx="40" cy="40" r="40" transform="translate(98 577)"/><g transform="translate(2749.999 13760)"><path class="b" d="M16.009,0H40V40H0V16.009A16.009,16.009,0,0,1,16.009,0Z" transform="translate(-2591.999 -13163) rotate(90)"/><g transform="translate(-2631.999 -13163)"><circle class="a" cx="20" cy="20" r="20"/><g transform="translate(8.202 8.417)"><path class="c" d="M992.313,295.109a.5.5,0,0,1-.23-.48,79.657,79.657,0,0,1,.466-8.023,34.707,34.707,0,0,1,1.489-7.228,10.328,10.328,0,0,1,1.124-2.455,11.479,11.479,0,0,1,2.846-2.826c.043-.031.084-.066.13-.093a1.2,1.2,0,0,0,.5-.58,1.86,1.86,0,0,1,.524-.639c.392-.323.815-.608,1.234-.9a.629.629,0,0,1,.336-.1q3.019-.009,6.038,0a.632.632,0,0,1,.335.107c.413.284.815.582,1.221.876a1.733,1.733,0,0,1,.627.845.572.572,0,0,0,.209.249,13.312,13.312,0,0,1,2.832,2.587,9.257,9.257,0,0,1,1.366,2.659,27.371,27.371,0,0,1,1.124,4.333.355.355,0,0,1-.273.449c-.187.034-.341-.092-.4-.318-.316-1.272-.6-2.555-.966-3.811a19.611,19.611,0,0,0-.857-2.077,2.02,2.02,0,0,0-.131-.22c-.036.087-.065.144-.083.2q-.84,2.881-1.68,5.763a.591.591,0,0,0,.044.453,18.364,18.364,0,0,1,1.352,4.354,42.526,42.526,0,0,1,.734,6.051c0,.036.008.073.013.123h2.483c0-.1,0-.193,0-.289-.046-2.354-.16-4.7-.41-7.047-.069-.648-.165-1.294-.248-1.942-.008-.061-.017-.121-.02-.181a.332.332,0,0,1,.3-.388.336.336,0,0,1,.381.309q.1.71.189,1.422c.272,2.286.417,4.581.471,6.882a2.2,2.2,0,0,0,.032.246v1.686h-3.646a.6.6,0,0,1-.216-.495,41.854,41.854,0,0,0-.56-5.292,22.8,22.8,0,0,0-1.092-4.266c-.027-.072-.061-.141-.1-.234a8.19,8.19,0,0,0-.149,3.356c.293,2.09.744,4.147,1.226,6.2.091.391,0,.536-.4.593-.329.048-.658.092-.987.139h-1.322c-.089-.015-.177-.035-.266-.044a5.589,5.589,0,0,1-3.375-1.41c-.265-.247-.512-.512-.782-.783l-.206.228a5.533,5.533,0,0,1-3,1.809c-.4.083-.8.134-1.207.2h-1.321c-.329-.046-.659-.091-.988-.139-.4-.058-.488-.2-.4-.594a54.845,54.845,0,0,0,1.319-7.107,7.041,7.041,0,0,0-.256-2.417,13.983,13.983,0,0,0-.581,1.744c-.267,1.144-.485,2.3-.724,3.449-.051.246-.2.363-.407.326s-.3-.207-.26-.453c.1-.561.181-1.124.293-1.681a18.387,18.387,0,0,1,1.351-4.354.593.593,0,0,0,.044-.453c-.464-1.609-.923-3.22-1.387-4.829-.108-.374-.234-.743-.367-1.161a2.814,2.814,0,0,0-.149.255c-.259.6-.549,1.184-.766,1.8a31.944,31.944,0,0,0-1.455,6.816,76.262,76.262,0,0,0-.5,7.86c0,.081,0,.161,0,.244h2.478c.054-.686.1-1.358.16-2.03.027-.325.061-.65.1-.974a.354.354,0,0,1,.371-.351.348.348,0,0,1,.308.4c0,.06-.008.121-.012.182-.078.991-.16,1.982-.232,2.973a.619.619,0,0,1-.217.495Zm14.8-15.493h1.642c.386,0,.492.1.493.481s0,.729,0,1.093-.111.476-.476.476c-.979,0-1.959.005-2.938,0a.486.486,0,0,0-.42.2c-.758.89-1.53,1.768-2.293,2.654a.956.956,0,0,0-.192.327,7.971,7.971,0,0,0,.961,7.072,5.12,5.12,0,0,0,3.35,2.361,8.594,8.594,0,0,0,2.9.052c-.011-.074-.015-.134-.029-.192a59.741,59.741,0,0,1-1.146-5.916,7.523,7.523,0,0,1-.073-2.2,22.041,22.041,0,0,1,.446-2.321c.625-2.256,1.294-4.5,1.953-6.747a.317.317,0,0,0-.071-.363c-.257-.258-.487-.544-.756-.788-.435-.4-.893-.766-1.341-1.148l-.065.025C1009.117,276.587,1008.109,278.079,1007.115,279.616Zm-9.776,14.745c.585.02,1.137.062,1.688.052a5.245,5.245,0,0,0,4.154-1.928.258.258,0,0,0,.018-.366,8.625,8.625,0,0,1-1.188-6.44,21.632,21.632,0,0,1,.786-2.561.47.47,0,0,0-.1-.521,30.859,30.859,0,0,1-3.15-4.318,7.261,7.261,0,0,1-1.017-2.492c-.059-.364-.083-.733-.125-1.119-.046.03-.085.05-.119.076a12.673,12.673,0,0,0-2,1.823.36.36,0,0,0-.073.4c.8,2.49,1.577,4.988,2.139,7.546a9.578,9.578,0,0,1,.237,3.253c-.213,1.734-.553,3.444-.927,5.148C997.563,293.381,997.455,293.844,997.339,294.361Zm6.26-11.493.052.03c.211-.247.424-.491.633-.74a31.64,31.64,0,0,0,3.207-4.441,5.623,5.623,0,0,0,.854-3.583,1.169,1.169,0,0,0-.26-.654,10.331,10.331,0,0,0-1.054-.817c-.115.342-.217.641-.318.942-.215.639-.428,1.279-.644,1.917-.086.253-.256.363-.454.3s-.279-.259-.192-.526c.08-.245.163-.489.244-.733.068-.205.136-.411.208-.632h-4.252l2.1,6.257c.314-.791.578-1.573.841-2.355.126-.373.246-.749.377-1.12a.341.341,0,0,1,.45-.236.348.348,0,0,1,.2.448c-.01.036-.022.073-.034.109q-.736,2.187-1.472,4.373Q1003.842,282.137,1003.6,282.868Zm-3.133-10.194a10.453,10.453,0,0,0-1.011.763,1.094,1.094,0,0,0-.291.617,5.284,5.284,0,0,0,.584,3.17,25.723,25.723,0,0,0,2.808,4.134c.183.23.372.455.587.717.1-.374.288-.658.153-1.051-.927-2.7-1.829-5.411-2.739-8.118C1000.532,272.836,1000.5,272.768,1000.466,272.674Zm.668-.2c.08.238.148.461.233.677a.2.2,0,0,0,.153.085q2.23.007,4.461,0a.2.2,0,0,0,.154-.084c.085-.216.153-.439.234-.678Zm7.418,8.5V280.3c-.625,0-1.238,0-1.85,0a.167.167,0,0,0-.116.053c-.151.194-.3.392-.464.616Z" transform="translate(-992.083 -271.778)"/><path class="c" d="M1023.211,311.285a.686.686,0,0,1,1.371.05.686.686,0,1,1-1.371-.05Z" transform="translate(-1011.863 -296.465)"/></g></g></g></g></svg>