<svg xmlns="http://www.w3.org/2000/svg" width="142.957" height="48" viewBox="0 0 142.957 48"><defs><style>.a{fill:#003383;}.b{fill:#d3a354;}.c{fill:#00a1c1;}.d{fill:#bababa;mix-blend-mode:multiply;isolation:isolate;}</style></defs><g transform="translate(-70.866 -165.01)"><g transform="translate(70.866 165.01)"><g transform="translate(51.13)"><path class="a" d="M210.33,171.479l-.835.835h.835c.033,0,3.214-.055,3.328-3.965h.011V165.01h-2.5a1.669,1.669,0,0,0-1.669,1.669v2.5h2.921v-.418l-1.728-.247a.418.418,0,0,1-.359-.414V167.1c0-.46,0-1.67,1.252-1.67h1.67v2.713A2.991,2.991,0,0,1,210.33,171.479Z" transform="translate(-190.712 -165.01)"/><path class="a" d="M206.525,168.14v15.652a3.13,3.13,0,0,1-3.13,3.13,2.087,2.087,0,0,1-2.087-2.087v-7.3h-6.261a4.174,4.174,0,0,0-4.174,4.174v6.261h8.188c-.845,5.213-4.829,5.218-5.058,5.218l-3.13,3.13h2.087c.077,0,7.121-.108,8.2-8.24a3.12,3.12,0,0,0,2.231.936h2.087a4.174,4.174,0,0,0,4.174-4.174V165.01Z" transform="translate(-181.482 -165.01)"/><path class="a" d="M180.528,190v2.087c1.392,0,3.13-1.868,3.13-4.174v-16.7l-3.13,3.13Z" transform="translate(-176.354 -168.087)"/><path class="a" d="M184.773,165.01h-8.347c-2.305,0-4.174,1.738-4.174,3.13h9.391Z" transform="translate(-172.251 -165.01)"/></g><g transform="translate(0 3.13)"><path class="b" d="M142.455,181.652H130.977a2.087,2.087,0,0,1-2.087-2.087v-2.608l-2.087,1.565v1.043a3.128,3.128,0,0,0,1.794,2.828l-1.794,1.346v3.13c0,3.13-3.023,3.13-4.174,3.13a2.087,2.087,0,0,1-2.087-2.087v-16.7l-2.087,2.087,1.043,15.652a3.13,3.13,0,0,0,3.13,3.13h1.044a4.17,4.17,0,0,0,3.652-2.154,4.171,4.171,0,0,0,3.652,2.154h6.261L139.325,190v-4.174a4.16,4.16,0,0,0-1.42-3.13h3.507c3.13,0,3.13,3.023,3.13,4.174v2.087c0,.519,0,1.043-1.043,1.043h-4.174l2.087,2.087h3.13A2.086,2.086,0,0,0,146.629,190v-4.174A4.174,4.174,0,0,0,142.455,181.652Zm-5.217,7.3a1.043,1.043,0,0,1-.9,1.033l-4.386.008c-3.063-.036-3.066-2.506-3.066-3.649v-3.834a3.123,3.123,0,0,0,1.043.182h4.174c3.131,0,3.131,3.023,3.131,4.174Z" transform="translate(-94.455 -171.217)"/><path class="b" d="M92.258,197.647c.432,2.838-3.147,2.553-4.686,2.608H74a2.075,2.075,0,0,1-1.895-1.234.915.915,0,0,1-.043-.554l.894-4.995H70.866v5.739a3.13,3.13,0,0,0,3.13,3.13H89.649a4.174,4.174,0,0,0,4.174-4.174v-6.261l-2.609,1.565Z" transform="translate(-70.866 -181.473)"/><path class="b" d="M90.522,220.058v1.878h3.131v-3.13H91.774A1.252,1.252,0,0,0,90.522,220.058Z" transform="translate(-80.609 -194.806)"/></g></g><g transform="translate(165.822 165.01)"><path class="c" d="M322.878,203.136a6.4,6.4,0,0,0-6.4-6.4h-25.6v9.176a6.816,6.816,0,0,0,6.816,6.815l9.185.009.009,9.185a6.816,6.816,0,0,0,6.816,6.815h9.176Z" transform="translate(-274.878 -180.736)"/><path class="b" d="M291.152,171.41a6.4,6.4,0,0,0-6.4-6.4h-25.6v9.175A6.816,6.816,0,0,0,265.968,181l9.184.009v9.184a6.815,6.815,0,0,0,6.816,6.815h9.185Z" transform="translate(-259.152 -165.01)"/><path class="d" d="M265.968,181h9.175l-6.642-1.454a10.436,10.436,0,0,1-7.981-8.044l-1.368-6.493v9.175A6.816,6.816,0,0,0,265.968,181Z" transform="translate(-259.152 -165.01)"/><path class="d" d="M329.438,244.471h9.176l-6.642-1.454a10.435,10.435,0,0,1-7.981-8.044l-1.368-6.493v9.175A6.816,6.816,0,0,0,329.438,244.471Z" transform="translate(-290.613 -196.471)"/><path class="a" d="M297.3,212.744h9.592V196.753H290.9v9.591A6.4,6.4,0,0,0,297.3,212.744Z" transform="translate(-274.887 -180.744)"/></g><g transform="translate(70.866 200.488)"><path class="a" d="M74.518,246.837v1.043H72.953a2.087,2.087,0,0,1-2.087-2.087v-8.869l1.565-1.565v9.913A1.565,1.565,0,0,0,74,246.837Z" transform="translate(-70.866 -235.359)"/><g transform="translate(29.113 0)"><path class="a" d="M130.681,237.446h-2.087v-1.252a.835.835,0,0,1,.835-.835h1.252Z" transform="translate(-128.594 -235.359)"/><path class="a" d="M133.28,249.914v1.043h-1.565a2.087,2.087,0,0,1-2.087-2.087v-5.739l1.565-1.565v6.783a1.565,1.565,0,0,0,1.565,1.565Z" transform="translate(-129.107 -238.436)"/></g><path class="a" d="M101.318,241.567H98.709l-1.565,1.565v5.739a2.086,2.086,0,0,0,2.087,2.087h2.608l1.565-1.565v-5.739A2.087,2.087,0,0,0,101.318,241.567Zm-.522,8.347h-.521a1.565,1.565,0,0,1-1.565-1.565V242.61h1.565a1.565,1.565,0,0,1,1.565,1.565v5.739Z" transform="translate(-83.892 -238.436)"/><path class="b" d="M220.9,238.49h-2.087v-3.131l-1.043,1.043v9.391a2.087,2.087,0,0,0,2.087,2.087h2.087l1.044-1.043v-6.261A2.087,2.087,0,0,0,220.9,238.49Zm-.521,8.869c-1.565,0-1.565-1.511-1.565-2.087v-6.261h1.565c1.565,0,1.565,1.511,1.565,2.087v6.261Z" transform="translate(-143.684 -235.359)"/><path class="b" d="M159.036,238.49h-2.087v-3.131l-1.043,1.043v11.478h1.043v-8.869h1.565c1.565,0,1.565,1.511,1.565,2.087v6.783h1.043v-7.3A2.087,2.087,0,0,0,159.036,238.49Z" transform="translate(-113.019 -235.359)"/><path class="b" d="M190.5,248.35v-6.783l-1.043,1.043v5.739c0,.575,0,2.087-1.565,2.087s-1.565-1.511-1.565-2.087v-6.783l-1.043,1.043v6.261a2.086,2.086,0,0,0,2.087,2.087h1.043a2.071,2.071,0,0,0,1.565-.72,2.073,2.073,0,0,0,1.565.72h.522v-.521C190.5,250.436,190.5,248.925,190.5,248.35Z" transform="translate(-127.582 -238.436)"/></g></g></svg>