<svg xmlns="http://www.w3.org/2000/svg" width="160.712" height="64" viewBox="0 0 160.712 64"><defs><style>.a{fill:#00a1c1;}.b{fill:none;}.c{fill:#fff;}.d{fill:#00abc4;}.e{fill:#003e92;}</style></defs><g transform="translate(-1538.66 -1711)"><path class="a" d="M25.614,0H64V64H0V25.614A25.614,25.614,0,0,1,25.614,0Z" transform="translate(1699.372 1711) rotate(90)"/><g transform="translate(1635.372 1711)"><circle class="b" cx="32" cy="32" r="32"/><g transform="translate(12.667 13.367)"><path class="c" d="M640.031,338.038a1.166,1.166,0,0,1-.658-1.251c.031-.435.006-.873.006-1.309,0-1,.284-1.365,1.292-1.623,0-.266,0-.543,0-.819a1.264,1.264,0,0,1,1.335-1.319c1.3-.007,2.6,0,3.895,0,.084,0,.169-.008.281-.013v-1.882h-1.448a2.333,2.333,0,0,1-1.029-4.492.439.439,0,0,0,.186-.287,4.486,4.486,0,0,0,.01-.545,1.058,1.058,0,0,0-.315-.939,1.135,1.135,0,0,1-.277-.755c-.025-1.515-.034-3.033.005-4.548a2.829,2.829,0,0,1,.375-.907,1.791,1.791,0,0,0,.2-.5c.032-.348.01-.7.01-1.049a2.362,2.362,0,0,1-1.642-2.054,2.3,2.3,0,0,1,2.107-2.5c.6-.034,1.206-.006,1.846-.006v-.487q0-4.422,0-8.843c0-.825.317-1.141,1.143-1.141h22.711c.829,0,1.136.309,1.137,1.146q0,1.983,0,3.967c0,.048,0,.1,0,.145-.01.426-.212.669-.552.664s-.536-.252-.539-.681c0-.8,0-1.6,0-2.4v-1.725H647.327v9.354c.659,0,1.311-.022,1.962,0a2.315,2.315,0,0,1,.8,4.428.392.392,0,0,0-.285.459,2.639,2.639,0,0,1,0,.436,1.206,1.206,0,0,0,.3.908,4.43,4.43,0,0,1,.467,1.263c.62,0,1.356,0,2.092-.008.068,0,.145-.107.2-.179a.926.926,0,0,1,.779-.393c.521,0,1.047-.036,1.563.018a1.359,1.359,0,0,1,.712.353.6.6,0,0,0,.449.215c1.08-.009,2.16,0,3.239-.013a.641.641,0,0,0,.416-.189,1.036,1.036,0,0,1,.789-.383c1.007,0,2.014,0,3.021,0,.383,0,.6.2.612.524a.55.55,0,0,1-.617.563c-.825.008-1.65,0-2.475,0h-.405v2.524a2.041,2.041,0,0,0,.246.029q5.423,0,10.846,0a1.275,1.275,0,0,0,.395-2.5,2.113,2.113,0,0,0-.54-.048q-2.566,0-5.132,0c-.1,0-.195.005-.291,0a.545.545,0,0,1-.551-.557.52.52,0,0,1,.571-.527c.861-.009,1.723,0,2.584,0h1.035v-.444q0-4.349,0-8.7a1.759,1.759,0,0,1,.033-.433.533.533,0,0,1,1.05.082c.011.121.007.243.007.364q0,4.33,0,8.661v.47c.341,0,.641-.007.941,0a2.366,2.366,0,0,1,.021,4.731c-.3.011-.6,0-.962,0v.445c0,4.513-.006,9.025.008,13.537a1.123,1.123,0,0,1-.676,1.161Zm14.3-1.113h15.757V322.9h-.455q-4.33,0-8.66,0a1.13,1.13,0,0,1-.96-.413.52.52,0,0,0-.356-.163q-1.674-.018-3.347,0a.52.52,0,0,0-.343.177,1,1,0,0,1-.819.4q-.727,0-1.455,0a.962.962,0,0,1-.841-.419.35.35,0,0,0-.213-.154c-.724-.011-1.448-.007-2.067-.007a5.137,5.137,0,0,1-.481,1.281,1.165,1.165,0,0,0-.287.836,2.427,2.427,0,0,1,0,.473c-.029.253.069.375.309.482a2.319,2.319,0,0,1-.951,4.429c-.522.008-1.043,0-1.565,0a2.6,2.6,0,0,0-.269.027v1.868h.413c1.309,0,2.619,0,3.929,0a1.294,1.294,0,0,1,1.387,1.387c0,.253,0,.506,0,.751,1.022.277,1.274.612,1.275,1.661Zm-13.856,0h12.764c0-.511-.017-1,.005-1.479.016-.342-.09-.465-.451-.462-1.965.016-3.93.008-5.9.007a2.871,2.871,0,0,1-.363-.007.5.5,0,0,1-.481-.5.513.513,0,0,1,.45-.569,1.518,1.518,0,0,1,.326-.012h5.135v-.562c0-.525,0-.526-.523-.526h-9.171a.8.8,0,0,0-.288.011c-.084.035-.2.125-.2.2-.024.283-.009.57-.009.879h.517c.583,0,1.165-.01,1.747.005a.542.542,0,1,1,0,1.083c-.1.007-.194,0-.291,0H640.86c-.186,0-.386-.017-.387.256C640.47,335.8,640.472,336.352,640.472,336.92Zm6.405-18.831c-.7,0-1.407.01-2.111,0-.277-.006-.389.071-.387.367q.018,2.074,0,4.148c0,.291.105.376.385.374q2.092-.016,4.185,0c.275,0,.395-.081.393-.373q-.014-2.074,0-4.149c0-.3-.118-.373-.393-.367C648.261,318.1,647.569,318.088,646.878,318.088Zm-.037,10.638c.751,0,1.5,0,2.253,0a1.236,1.236,0,1,0,.014-2.47q-2.253-.015-4.507,0a1.235,1.235,0,1,0,.023,2.469C645.363,328.731,646.1,328.726,646.84,328.726Zm.016-16.407h-2.18a1.241,1.241,0,1,0-.018,2.476q2.2.018,4.4,0a1.24,1.24,0,1,0-.018-2.474C648.31,312.314,647.583,312.32,646.856,312.32Zm12.949,8.886V319.85h-3.667v1.356Zm-14.791-5.292v1.057h3.667v-1.057Zm.006,8.166v1.052h3.672V324.08ZM655,321.789v-2.52h-1.19v2.52Zm-2.315-1.933h-2.231V321.2h2.231Z" transform="translate(-639.368 -300.771)"/><path class="c" d="M665.571,305.869a5.651,5.651,0,1,1-5.668,5.582A5.636,5.636,0,0,1,665.571,305.869Zm-.007,1.091a4.559,4.559,0,1,0,4.544,4.567A4.555,4.555,0,0,0,665.564,306.96Z" transform="translate(-646.213 -302.47)"/><path class="c" d="M669.919,345.529c-1.611,0-3.224.006-4.835-.007a.853.853,0,0,1-.553-.186.6.6,0,0,1-.112-.521c.051-.151.25-.27.409-.357a.81.81,0,0,1,.358-.019h9.633c.423.007.676.21.677.544s-.249.546-.671.547Q672.374,345.532,669.919,345.529Z" transform="translate(-647.712 -315.323)"/><path class="c" d="M669.923,337.567c-1.636,0-3.271,0-4.907,0a.577.577,0,0,1-.63-.382.537.537,0,0,1,.443-.7,1.973,1.973,0,0,1,.327-.01h9.524a1.775,1.775,0,0,1,.327.01.515.515,0,0,1,.471.553.507.507,0,0,1-.5.523,4.653,4.653,0,0,1-.472.006Z" transform="translate(-647.697 -312.672)"/><path class="c" d="M667.8,348.436c.933,0,1.867-.006,2.8,0a.524.524,0,0,1,.582.516c.011.323-.2.535-.576.567-.108.009-.218,0-.327,0h-4.908c-.109,0-.218,0-.327,0-.443-.015-.668-.2-.67-.546s.22-.541.664-.543c.921,0,1.842,0,2.763,0Z" transform="translate(-647.701 -316.658)"/><path class="c" d="M674.8,341.553c-.8,0-1.6.005-2.4,0a.756.756,0,0,1-.477-.109.706.706,0,0,1-.213-.523c.028-.16.221-.316.378-.42.1-.064.259-.034.391-.034q2.328,0,4.655,0c.1,0,.195,0,.291.01a.535.535,0,0,1-.007,1.069c-.435.023-.873.011-1.309.012S675.234,341.553,674.8,341.553Z" transform="translate(-650.146 -313.999)"/><path class="c" d="M666.348,341.554c-.448,0-.9.007-1.344,0-.413-.008-.633-.2-.635-.539s.211-.543.625-.546q1.4-.012,2.8,0c.4,0,.627.219.62.554-.007.319-.227.522-.609.531C667.317,341.562,666.833,341.554,666.348,341.554Z" transform="translate(-647.701 -314.001)"/><path class="c" d="M677.36,348.436c.412,0,.825-.008,1.236,0a.544.544,0,0,1,.595.509.539.539,0,0,1-.572.571q-1.29.022-2.581,0a.538.538,0,1,1,.013-1.076C676.488,348.427,676.924,348.436,677.36,348.436Z" transform="translate(-651.407 -316.658)"/><path class="c" d="M666.854,314.207l1.959-1.962c.094-.094.184-.195.286-.279a.54.54,0,0,1,.763.763c-.226.252-.473.486-.713.726-.59.591-1.18,1.184-1.773,1.772-.389.385-.629.383-1.016,0q-.736-.73-1.465-1.465c-.3-.307-.333-.616-.089-.859s.56-.21.86.089C666.058,313.382,666.44,313.783,666.854,314.207Z" transform="translate(-647.792 -304.452)"/></g></g><g transform="translate(1538.66 1711)"><path class="d" d="M1881.422,1360l-1.422,1.422v7.111a5.689,5.689,0,0,0,5.689,5.689h1.422v-2.844h0c-1.569,0-5.689,0-5.689-4.266Z" transform="translate(-1880 -1331.556)"/><path class="d" d="M1909.222,1360H1907.8c0,11.249-9.607,11.378-9.956,11.378h0l-2.844,2.844h2.844C1897.958,1374.222,1909.222,1374.06,1909.222,1360Z" transform="translate(-1873.667 -1331.556)"/><path class="d" d="M1909.222,1360H1907.8c0,11.249-9.607,11.378-9.956,11.378h0l-2.844,2.844h2.844C1897.958,1374.222,1909.222,1374.06,1909.222,1360Z" transform="translate(-1873.667 -1331.556)"/><rect class="d" width="1.422" height="9.956" transform="translate(34.133 18.489)"/><path class="d" d="M1897.845,1359.111c0-1.569,0-5.689,4.266-5.689h7.111V1352h-8.533a5.689,5.689,0,0,0-5.689,5.689v8.533h9.956V1364.8l-5.889-.842a1.422,1.422,0,0,1-1.222-1.408Z" transform="translate(-1873.667 -1334.934)"/><g transform="translate(58.311)"><path class="e" d="M1926.689,1343h-.569c0,4.5-3.843,4.551-3.982,4.551h0l-1.138,1.138h1.138C1922.184,1348.689,1926.689,1348.623,1926.689,1343Z" transform="translate(-1921 -1338.734)"/><rect class="e" width="0.569" height="3.982" transform="translate(5.12 0.569)"/><path class="e" d="M1922.138,1342.845c0-.627,0-2.275,1.707-2.275h2.844V1340h-3.413a2.275,2.275,0,0,0-2.275,2.276v3.413h3.982v-.569l-2.357-.337a.569.569,0,0,1-.488-.563Z" transform="translate(-1921 -1340)"/></g><path class="d" d="M1888.845,1359.111c0-1.569,0-5.689,4.267-5.689h2.844l1.422-1.422h-5.689a5.689,5.689,0,0,0-5.689,5.689v8.533h9.956V1364.8l-5.889-.842a1.422,1.422,0,0,1-1.222-1.408Z" transform="translate(-1877.467 -1334.934)"/><path class="d" d="M1911.533,1367l-7.111,5.689H1903l5.689-5.689Z" transform="translate(-1870.289 -1328.6)"/><path class="e" d="M1926.223,1361.956l-1.422,4.267H1912v-8.533a5.689,5.689,0,0,1,5.689-5.689h8.534Z" transform="translate(-1866.489 -1334.934)"/><path class="e" d="M1926.223,1360h-2.845c0,9.956-6.763,9.956-7.111,9.956h0l-4.267,4.267h2.845C1914.958,1374.222,1926.223,1374.06,1926.223,1360Z" transform="translate(-1866.489 -1331.556)"/><path class="e" d="M1923,1369.867l2.844,2.844h1.422a5.689,5.689,0,0,0,5.689-5.689V1340l-4.266,4.267V1365.6a4.266,4.266,0,0,1-4.266,4.267Z" transform="translate(-1861.845 -1340)"/><path class="e" d="M1907,1371.444c1.9,0,4.267-2.547,4.267-5.689V1343l-4.267,4.266v24.178Z" transform="translate(-1868.6 -1338.734)"/><path class="e" d="M1926.689,1365.111h-1.422a4.266,4.266,0,0,1-4.267-4.267v-1.422l1.422-1.422v1.422a2.844,2.844,0,0,0,2.844,2.844h1.422Z" transform="translate(-1862.689 -1332.4)"/><path class="d" d="M1894.872,1362c-1.479,8.4-9.556,8.533-9.872,8.533v2.844c.105,0,9.969-.148,11.378-11.378Z" transform="translate(-1877.889 -1330.711)"/><path class="e" d="M1903,1344.267c0-1.9,2.547-4.267,5.689-4.267h11.378l-4.266,4.267Z" transform="translate(-1870.289 -1340)"/><g transform="translate(0 46.933)"><g transform="translate(34.816 3.413)"><path class="d" d="M1907.324,1385.071v.569h-.569a2.275,2.275,0,0,1-2.275-2.275v-6.827l1.138-1.138v7.4c0,.627,0,2.276,1.707,2.276Z" transform="translate(-1904.48 -1375.4)"/><g transform="translate(2.844)"><path class="d" d="M1910.525,1384.734v.569h-.569a2.275,2.275,0,0,1-2.276-2.276v-5.689l1.138-1.138v6.258c0,.627,0,2.276,1.707,2.276Z" transform="translate(-1905.974 -1375.063)"/><path class="d" d="M1909.68,1385.071v.569h.569a2.275,2.275,0,0,0,2.276-2.275V1375.4l-1.138,1.138v6.258c0,.627,0,2.276-1.707,2.276Z" transform="translate(-1905.129 -1375.4)"/><path class="d" d="M1906.48,1384.734v.569h.569a2.275,2.275,0,0,0,2.275-2.276V1376.2l-1.137,1.138v5.12c0,.627,0,2.276-1.707,2.276Z" transform="translate(-1906.48 -1375.063)"/></g></g><g transform="translate(65.422 3.413)"><path class="d" d="M1928.844,1385.071v.569h-.569a2.275,2.275,0,0,1-2.276-2.275v-6.827l1.138-1.138v7.4c0,.627,0,2.276,1.707,2.276Z" transform="translate(-1926 -1375.4)"/><path class="d" d="M1928,1385.071v.569h.569a2.275,2.275,0,0,0,2.275-2.275V1375.4l-1.138,1.138v6.258c0,.627,0,2.276-1.707,2.276Z" transform="translate(-1925.156 -1375.4)"/><path class="d" d="M1931.689,1381h-.569c0,4.5-3.843,4.551-3.982,4.551h0l-1.138,1.138h1.138C1927.183,1386.689,1931.689,1386.624,1931.689,1381Z" transform="translate(-1926 -1373.036)"/></g><path class="e" d="M1883.982,1385.516v1.138h-1.707a2.275,2.275,0,0,1-2.275-2.276v-9.671l1.707-1.707v10.809a1.706,1.706,0,0,0,1.706,1.707Z" transform="translate(-1880 -1373)"/><g transform="translate(23.779)"><path class="e" d="M1899,1375.276h-2.275v-1.365a.911.911,0,0,1,.91-.91H1899Z" transform="translate(-1896.72 -1373)"/><path class="e" d="M1901.1,1384.5v1.137H1899.4a2.275,2.275,0,0,1-2.276-2.275v-6.258l1.707-1.707v7.4a1.707,1.707,0,0,0,1.707,1.707Z" transform="translate(-1896.551 -1371.987)"/></g><g transform="translate(10.468 3.413)"><path class="e" d="M1891.342,1384.5v1.137h-1.706a2.275,2.275,0,0,1-2.276-2.275v-6.258l1.707-1.707v7.4a1.707,1.707,0,0,0,1.707,1.707Z" transform="translate(-1887.36 -1375.4)"/><path class="e" d="M1889.36,1376.537V1375.4h1.707a2.275,2.275,0,0,1,2.275,2.276v6.258l-1.707,1.707v-7.4a1.707,1.707,0,0,0-1.707-1.707Z" transform="translate(-1886.516 -1375.4)"/><rect class="e" width="1.138" height="1.138" transform="translate(1.707)"/><rect class="e" width="1.138" height="1.138" transform="translate(3.982 9.102)"/></g><g transform="translate(51.541 3.413)"><path class="d" d="M1918.24,1383.72v.569h.569a2.275,2.275,0,0,0,2.276-2.276v-2.276l-1.138-1.138v2.845c0,.627,0,2.275-1.707,2.275Z" transform="translate(-1915.396 -1374.049)"/><path class="d" d="M1922.285,1384.058v.569h-.569a2.275,2.275,0,0,1-2.276-2.276v-3.413l1.138-1.138v3.982c0,.627,0,2.276,1.707,2.276Z" transform="translate(-1914.889 -1374.387)"/><path class="d" d="M1918.24,1375.969v-.569h.569a2.275,2.275,0,0,1,2.276,2.276v1.707l-1.138,1.138v-2.276c0-.627,0-2.276-1.707-2.276Z" transform="translate(-1915.396 -1375.4)"/><path class="d" d="M1917.378,1381.614c0,.627,0,2.275,1.707,2.275h.568v.569h-1.138a2.275,2.275,0,0,1-2.275-2.275V1378.2h3.983v.569l-2.357.337a.569.569,0,0,0-.488.563Z" transform="translate(-1916.24 -1374.218)"/><path class="d" d="M1916.24,1375.969h2.845v-.569h-2.276Z" transform="translate(-1916.24 -1375.4)"/></g></g></g></g></svg>