<svg xmlns="http://www.w3.org/2000/svg" width="184" height="184" viewBox="0 0 184 184"><defs><style>.a{fill:#fff;}.b{fill:#d3a354;}.c{fill:#00a1c1;}.d{fill:#003383;}</style></defs><g transform="translate(-725.321 -26.828)"><circle class="a" cx="92" cy="92" r="92" transform="translate(725.321 26.828)"/><g transform="translate(785.354 70.827)"><path class="b" d="M807.468,58.827c1,.219,2.032.355,3,.671,6.917,2.253,11.161,6.969,12.063,14.183.865,6.926-1.91,12.428-7.692,16.37-.65.443-1.355.8-1.418,1.72a1.709,1.709,0,0,0,.913,1.948,4.4,4.4,0,0,1-.1,7.643,1.336,1.336,0,0,0-.841,1.435c.167,2.289-.568,4.112-2.783,5.136a.793.793,0,0,0-.313.571c-.046.462-.015.93-.015,1.5.285-.15.5-.247.7-.37a7.525,7.525,0,0,1,4-1.123c3.593,0,7.186-.008,10.778,0a2.87,2.87,0,0,1,3.13,3.071,14.921,14.921,0,0,1-.364,3.89,7.278,7.278,0,0,1-7.225,5.183c-3.281.033-6.561.008-9.842.008h-1.1v3.391h.972c2.75,0,5.5-.006,8.249,0a2.88,2.88,0,0,1,3.113,3.082c.014.843.006,1.687,0,2.53-.009,2.183-.945,3.22-3.221,3.439-.418,4.154-.839,8.334-1.272,12.638.375.017.7.044,1.023.044q7.826,0,15.653,0c2.235,0,3.34,1.1,3.348,3.323,0,.906.014,1.812,0,2.718a2.879,2.879,0,0,1-2.959,2.963c-2.124.025-4.249.007-6.373.007h-40.3a9.317,9.317,0,0,1-.936-.012,1.388,1.388,0,0,1-1.328-1.425,1.365,1.365,0,0,1,1.3-1.36,7.6,7.6,0,0,1,.937-.014h46.8v-3.311H776.219v3.311H780.2c.343,0,.69-.02,1.03.012a1.36,1.36,0,0,1,1.317,1.422,1.271,1.271,0,0,1-1.281,1.349c-1.81.052-3.627.085-5.433-.019a2.78,2.78,0,0,1-2.486-2.732c-.034-1.061-.021-2.124-.009-3.187a2.87,2.87,0,0,1,3.059-3.042q7.92-.016,15.841,0h1.119L792.1,133.178c-2.56-.478-3.233-1.3-3.234-3.879,0-.718-.009-1.437,0-2.156a2.881,2.881,0,0,1,3.11-3.085c2.719-.008,5.436,0,8.155,0h1.081v-3.391h-1.2c-3.155,0-6.311.009-9.466,0-4.752-.017-7.862-3.117-7.9-7.854,0-.219,0-.437,0-.656,0-2.6,1.033-3.642,3.615-3.642,3,0,6,.038,9-.014a8.857,8.857,0,0,1,5.865,1.509c.363-1.485.259-1.727-.9-2.484a4.393,4.393,0,0,1-2.054-4.155,2.1,2.1,0,0,0-1.134-2.222,4.416,4.416,0,0,1,.16-7.461c.439-.274,1.04-.343.986-1.152a2.467,2.467,0,0,0-.956-2.191,25.289,25.289,0,0,1-3.256-2.505,16.916,16.916,0,0,1-3.331-19.676,1.425,1.425,0,1,1,2.538,1.227c-.051.114-.11.225-.162.338a13.894,13.894,0,0,0-.7,10.219,12.96,12.96,0,0,0,5.3,7.278c2.1,1.371,3.752,2.848,3.289,5.687h3.415V83.382c-.509,0-1.024.019-1.537,0a1.412,1.412,0,0,1-1.5-1.451,1.387,1.387,0,0,1,1.494-1.348q3-.029,6,0a1.39,1.39,0,0,1,1.5,1.339,1.412,1.412,0,0,1-1.488,1.46c-.492.024-.987,0-1.541,0v9.542h3.271a5.391,5.391,0,0,0,.076-.71,4.742,4.742,0,0,1,2.51-4.393,13.9,13.9,0,0,0,6.408-8.867,14.11,14.11,0,0,0-21.8-14.8c-.179.125-.352.259-.535.379a1.409,1.409,0,1,1-1.647-2.268,16.818,16.818,0,0,1,7.676-3.25,6.036,6.036,0,0,0,.7-.193Zm8.545,80.5H795.545l.642,6.424H815.38C815.591,143.6,815.8,141.5,816.013,139.323Zm3.827-12.4h-28.1v3.269h28.1Zm6.312-15.531c-.306-.036-.426-.062-.546-.062-3.588,0-7.177-.008-10.765.008a4.678,4.678,0,0,0-1.287.2c-2.079.611-3.576,2.851-3.1,4.688,1.125-.819,2.229-1.623,3.334-2.425,1.089-.791,1.888-.8,2.442-.017.534.75.26,1.518-.827,2.316-.715.524-1.428,1.049-2.314,1.7,3.163,0,6.087.11,9-.039a4.229,4.229,0,0,0,3.867-3.417A22.252,22.252,0,0,0,826.152,111.388ZM801.224,116.3a4.567,4.567,0,0,0-4.547-4.968c-3.561-.035-7.123-.009-10.684-.006a4.1,4.1,0,0,0-.526.077c0,.68-.029,1.33,0,1.978a4.329,4.329,0,0,0,3.974,4.363c2.909.183,5.839.044,9.02.044-1.025-.75-1.878-1.351-2.7-1.987a1.4,1.4,0,0,1-.469-1.963,1.38,1.38,0,0,1,2.117-.3C798.653,114.416,799.873,115.322,801.224,116.3Zm-5.963,20.107h21.048l.323-3.27H794.914Zm12.166-12.375V108.3h-3.259v15.735Zm-1.562-28.242c-2,0-3.991-.01-5.986,0-1.257.008-2,.677-1.987,1.735.016,1.022.724,1.651,1.958,1.656q5.94.022,11.879,0c1.228,0,1.934-.648,1.94-1.674.006-1.056-.739-1.71-2-1.718C809.731,95.782,807.8,95.791,805.864,95.791Zm-4.879,6.275a18.484,18.484,0,0,0,.012,1.865,1.446,1.446,0,0,0,1.451,1.44c2.21.047,4.422.043,6.632.008a1.41,1.41,0,0,0,1.455-1.323,16.435,16.435,0,0,0,.016-1.99Z" transform="translate(-773.321 -58.827)"/><path class="c" d="M852.017,58.827c1.349,1.033,1.294,2.012-.172,2.868q-2.3,1.339-4.6,2.655c-1,.571-1.842.435-2.273-.338s-.1-1.525.905-2.115q2.6-1.533,5.206-3.07Z" transform="translate(-793.875 -58.827)"/><path class="c" d="M783.382,58.827q2.4,1.416,4.8,2.832a8.9,8.9,0,0,1,.875.534,1.315,1.315,0,0,1,.42,1.814,1.244,1.244,0,0,1-1.758.586c-1.914-1.032-3.808-2.107-5.648-3.266-.943-.595-.736-1.657.37-2.5Z" transform="translate(-775.667 -58.827)"/><path class="c" d="M777.8,89.35c1,0,1.992-.014,2.988,0a1.405,1.405,0,1,1,.027,2.8q-2.988.036-5.976,0a1.4,1.4,0,1,1,.066-2.8C775.872,89.337,776.838,89.35,777.8,89.35Z" transform="translate(-773.328 -67.604)"/><path class="c" d="M845.955,115.3a11.119,11.119,0,0,1,1.172.475q2.433,1.382,4.849,2.8c.965.566,1.233,1.314.789,2.074s-1.227.9-2.186.357q-2.514-1.428-5.01-2.889a1.247,1.247,0,0,1-.682-1.643A5.026,5.026,0,0,1,845.955,115.3Z" transform="translate(-793.871 -75.069)"/><path class="c" d="M856.293,89.35c1,0,1.992-.017,2.988,0a1.4,1.4,0,1,1,.055,2.795q-3.035.042-6.069,0a1.4,1.4,0,1,1,.038-2.794C854.3,89.333,855.3,89.35,856.293,89.35Z" transform="translate(-795.891 -67.603)"/><path class="c" d="M789.679,117.17a3.306,3.306,0,0,1-.793.987c-1.718,1.061-3.478,2.06-5.243,3.043a1.368,1.368,0,0,1-1.945-.481,1.341,1.341,0,0,1,.543-1.924c1.761-1.053,3.532-2.092,5.333-3.075C788.559,115.181,789.641,115.822,789.679,117.17Z" transform="translate(-775.67 -75.135)"/><path class="d" d="M819.229,145.792q7.826,0,15.653,0c2.235,0,3.34,1.1,3.348,3.323,0,.906.014,1.812,0,2.718a2.879,2.879,0,0,1-2.959,2.963c-2.124.025-4.249.007-6.373.007h-40.3a9.317,9.317,0,0,1-.936-.012,1.388,1.388,0,0,1-1.328-1.425,1.365,1.365,0,0,1,1.3-1.36,7.6,7.6,0,0,1,.937-.014h46.8v-3.311H776.219v3.311H780.2c.343,0,.69-.02,1.03.012a1.36,1.36,0,0,1,1.317,1.422,1.271,1.271,0,0,1-1.281,1.349c-1.81.052-3.627.085-5.433-.019a2.78,2.78,0,0,1-2.486-2.732c-.034-1.061-.021-2.124-.009-3.187a2.87,2.87,0,0,1,3.059-3.042q7.92-.016,15.841,0C810.155,145.794,818.905,145.792,819.229,145.792Z" transform="translate(-773.321 -58.827)"/></g></g></svg>